<?xml version="1.0" encoding="utf-8"?>
<!-- Generator: Adobe Illustrator 22.0.1, SVG Export Plug-In . SVG Version: 6.00 Build 0)  -->
<svg version="1.1" id="图层_1" xmlns="http://www.w3.org/2000/svg" xmlns:xlink="http://www.w3.org/1999/xlink" x="0px" y="0px"
	 viewBox="0 0 371 200" style="enable-background:new 0 0 371 200;" xml:space="preserve">
<style type="text/css">
	.st0{fill:url(#路径_4_);}
	.st1{fill:url(#路径_11_);}
	.st2{fill:url(#路径_12_);}
	.st3{fill:url(#形状结合_3_);}
	.st4{display:none;opacity:0.51;fill:url(#形状结合_4_);enable-background:new    ;}
	.st5{fill:url(#形状结合_5_);}
	.st6{display:none;opacity:0.5;fill:url(#路径_13_);enable-background:new    ;}
	.st7{display:none;fill:url(#SVGID_1_);}
	.st8{fill:url(#路径_14_);}
	.st9{fill:url(#路径_15_);}
	.st10{fill:url(#路径_16_);}
	.st11{fill:url(#路径_17_);}
	.st12{fill:url(#路径_18_);}
	.st13{fill:url(#路径_19_);}
</style>
<title>编组 18</title>
<g id="页面-1">
	<g id="空状态图标备份" transform="translate(-535.000000, -819.000000)">
		<g id="编组-18" transform="translate(535.000000, 819.000000)">
			<g id="编组-2备份-7">
				
					<linearGradient id="路径_4_" gradientUnits="userSpaceOnUse" x1="-963.2173" y1="595.9906" x2="-962.0583" y2="593.131" gradientTransform="matrix(63.9295 0 0 -65.4068 61603.8164 38958.4453)">
					<stop  offset="0.5663" style="stop-color:#DEE9E9"/>
					<stop  offset="0.9708" style="stop-color:#FFFFFF;stop-opacity:0"/>
				</linearGradient>
				<path id="路径" class="st0" d="M73.2,159.6c-7.9-3.6-16.5-13.2-14.1-22.2c1.2-0.3,2.5,0.2,3.2,1.2c0,0,13.7,21.4,9.9,1.7
					c-1.8-9.3-4.9-18.2-5.2-27.8c-0.4-17.4,15.6-22.2,20.2-3c0.6,2.5,2.9,23.2,8.2,20.9c0.7-0.4,1.2-0.9,1.6-1.6
					c2.7-4.4,3.5-10.9,8.4-12.3c4.3-1.4,8.6,2.4,10.9,6.2c4.7,7.9,11,27.4,1.4,34C107.9,163.2,83.6,164.3,73.2,159.6L73.2,159.6z"/>
				
					<linearGradient id="路径_11_" gradientUnits="userSpaceOnUse" x1="-960.1157" y1="594.9561" x2="-960.6554" y2="593.5634" gradientTransform="matrix(59.2575 0 0 -64.9717 57246.8203 38729.2148)">
					<stop  offset="0.6291" style="stop-color:#DEE9E9"/>
					<stop  offset="1" style="stop-color:#FFFFFF;stop-opacity:0"/>
				</linearGradient>
				<path id="路径_1_" class="st1" d="M296.8,173.1c-2.9-6.7-2.8-17.4,3.8-21.7c0.9,0.5,1.4,1.5,1.2,2.6c0,0-3.5,21,5.2,6.6
					c4.1-6.8,7.2-14.1,12.4-20.2c9.5-11.1,22.1-5.1,14.2,9.4c-1,1.9-11.2,16.1-6.6,17.6c0.6,0.2,1.3,0.1,1.9-0.1
					c4.1-1.2,8.3-4.8,12.2-3c3.4,1.6,4,6.3,3.2,10c-1.5,7.5-8.8,15.9-18.5,14.6C315.9,187.6,300.6,181.8,296.8,173.1L296.8,173.1z"
					/>
				
					<linearGradient id="路径_12_" gradientUnits="userSpaceOnUse" x1="-974.8608" y1="591.4324" x2="-974.8608" y2="588.2207" gradientTransform="matrix(370.5185 0 0 -51.8519 361389.0938 30699.6895)">
					<stop  offset="0.51" style="stop-color:#DDE9E8"/>
					<stop  offset="1" style="stop-color:#FFFFFF;stop-opacity:0"/>
				</linearGradient>
				<path id="路径_2_" class="st2" d="M370.4,199.4c-46.6-31.9-112.3-51.9-185.3-51.9S46.5,167.4-0.1,199.4H370.4z"/>
				
					<linearGradient id="形状结合_3_" gradientUnits="userSpaceOnUse" x1="-949.6891" y1="591.91" x2="-950.3016" y2="589.8848" gradientTransform="matrix(35.7734 0 0 -55.8532 34267.6523 33108.0586)">
					<stop  offset="0.4963" style="stop-color:#DEE9E9"/>
					<stop  offset="1" style="stop-color:#FFFFFF;stop-opacity:0"/>
				</linearGradient>
				<path id="形状结合" class="st3" d="M293.4,103.1c-3,3.7-4.8,9-3.1,13.6c1.2,3.2,4.9,3.3,4.6,7.8c-0.3,2.2-1,4.4-2.2,6.3
					c-2.1,3.6-4.6,7-7.6,10c2.5,1.9,3.7,5,3.3,8.1c-0.5,3.1-1.9,5.9-4.2,8.1c-0.7,0.8-1.5,1.4-2.5,1.8c-0.9,0.2-1.9,0.2-2.8,0
					c-4.6-0.8-9.1-2.2-13.2-4.2c-2.6-1.2-5.3-3-6.2-5.7c-1-3.1,0.6-4.1,2.4-5.1l0.5-0.3c0.9-0.5,1.8-1.1,2.3-1.9
					c1.3-2.1,1.3-5,1.8-7.3c0.7-3.5-0.3-9.9,4-11.2c1.7-0.5,3.5-0.4,5.2-1c3.7-1.2,5.2-4.6,6.7-8.1l0.3-0.6c0.8-2,1.7-4,3-5.5
					C287.5,105.6,292.1,104.6,293.4,103.1z M282.7,123.8c0,0-13.3,15.5-12.9,29.8h4.3C274.1,153.6,275.7,136.3,282.7,123.8z"/>
			</g>
			<g id="网络缺省页" transform="translate(122.000000, 60.000000)">
				
					<linearGradient id="形状结合_4_" gradientUnits="userSpaceOnUse" x1="-1336.7014" y1="540.5455" x2="-1336.7014" y2="539.5455" gradientTransform="matrix(144 0 0 -99 192558 53525)">
					<stop  offset="0" style="stop-color:#E9E9E9"/>
					<stop  offset="1" style="stop-color:#CCCCCC"/>
				</linearGradient>
				<path id="形状结合_1_" class="st4" d="M67.3,103.1c3-3.3,9.4-3.3,12.4,0l0,0l-6.2,6.9L67.3,103.1z M66.3,77.7l-0.1,0.4
					l-3.5,19c-0.6,0.4-1.1,0.9-1.6,1.4l0,0L48.7,85.7C53.5,80.9,60,78.9,66.3,77.7L66.3,77.7z M78.7,76.7c6.4,1.2,13.7,2.7,18.7,7.9
					l0,0L84.5,98.5c-3.6-3.8-9.3-6.5-14.1-6l0,0l6.4-11.7L78.7,76.7z M73.5,44.3L71,60.8c-12.1,0.8-23.5,6.1-32,14.8l0,0L25.9,62
					c9.3-9.5,22-14.1,34-16.8l0,0L59.5,47h7.2L73.5,44.3z M93.9,46.4c9.8,3.1,20.5,7.3,28.3,15.1l0,0l-13.1,13.1
					c-6.4-6.4-15-11.6-23.1-13.8l0,0L93.9,46.4z M95,13.1c17.8,4,36.1,11.6,50,25.5l0,0l-13.1,13.1c-9.3-9.2-20.9-17.2-32.5-21.2
					l0,0l3.8-6.1L94.5,25h-4.4L95,13.1z M66.3,11l-4.1,17c-18.3,2.2-35.4,10.6-48.4,23.6l0,0L1,38.8C18.9,20.9,42.9,12.4,66.3,11
					L66.3,11z"/>
				
					<linearGradient id="形状结合_5_" gradientUnits="userSpaceOnUse" x1="-75" y1="20.9" x2="-75" y2="20.9" gradientTransform="matrix(1 0 0 -1 122 142)">
					<stop  offset="1.198948e-03" style="stop-color:#E9F0F1"/>
					<stop  offset="0.9987" style="stop-color:#CFDCDC"/>
				</linearGradient>
				<path id="形状结合_2_" class="st5" d="M47,121.1"/>
				
					<linearGradient id="路径_13_" gradientUnits="userSpaceOnUse" x1="-179" y1="860.5" x2="-148" y2="860.5" gradientTransform="matrix(1 0 0 1 244 -822)">
					<stop  offset="0" style="stop-color:#E9E9E9"/>
					<stop  offset="1" style="stop-color:#CCCCCC"/>
				</linearGradient>
				<polygon id="路径_5_" class="st6" points="75.8,0.9 94.1,0 84.9,28.4 96,27.3 71.6,77 80.5,38.9 65,38.1 				"/>
			</g>
		</g>
	</g>
</g>
<g id="评价">
	
		<linearGradient id="SVGID_1_" gradientUnits="userSpaceOnUse" x1="434.9284" y1="1791.6534" x2="412.6342" y2="1665.217" gradientTransform="matrix(1 0 0 1 0 -1644)">
		<stop  offset="0.1887" style="stop-color:#FFFFFF"/>
		<stop  offset="1" style="stop-color:#BBCBE0"/>
	</linearGradient>
	<polygon class="st7" points="333.9,35.1 326.4,39.9 343.3,60.8 334.4,65.8 396.1,154.5 517.8,109.9 459.9,61.9 398.7,29.4 	"/>
</g>
<title>编组 21</title>
<g id="页面-1_1_">
	<g id="空状态图标备份_1_" transform="translate(-116.000000, -197.000000)">
		<g id="编组-21" transform="translate(116.000000, 197.000000)">
			
				<linearGradient id="路径_14_" gradientUnits="userSpaceOnUse" x1="-643.4165" y1="25.2847" x2="-642.7363" y2="25.353" gradientTransform="matrix(75.5679 0 0 33.037 48791.8516 -746.5298)">
				<stop  offset="1.198948e-03" style="stop-color:#E9F0F1"/>
				<stop  offset="0.9279" style="stop-color:#C0D5D5"/>
			</linearGradient>
			<polygon id="路径_3_" class="st8" points="177.3,73.6 176.8,104.6 247.8,83.1 			"/>
			
				<linearGradient id="路径_15_" gradientUnits="userSpaceOnUse" x1="-640.5861" y1="40.8674" x2="-640.5861" y2="41.6982" gradientTransform="matrix(60.1975 0 0 20.0617 38710.6797 -746.4027)">
				<stop  offset="1.198948e-03" style="stop-color:#E9F0F1"/>
				<stop  offset="0.9279" style="stop-color:#B6CCCC"/>
			</linearGradient>
			<polygon id="路径_6_" class="st9" points="120.7,86.1 177.3,73.7 177.3,92.6 			"/>
			
				<linearGradient id="路径_16_" gradientUnits="userSpaceOnUse" x1="-641.8973" y1="9.5114" x2="-642.4984" y2="8.4456" gradientTransform="matrix(71.0494 0 0 96.9383 45786.1055 -733.2723)">
				<stop  offset="1.198948e-03" style="stop-color:#E9F0F1"/>
				<stop  offset="0.9279" style="stop-color:#C0D5D5"/>
			</linearGradient>
			<polygon id="路径_7_" class="st10" points="120.7,86.1 187.5,92.7 187.5,177.2 120.7,161 			"/>
			
				<linearGradient id="路径_17_" gradientUnits="userSpaceOnUse" x1="-641.4504" y1="8.4233" x2="-640.8749" y2="9.5953" gradientTransform="matrix(64.1975 0 0 100.0741 41389.7305 -736.4056)">
				<stop  offset="1.198948e-03" style="stop-color:#E9F0F1"/>
				<stop  offset="0.9279" style="stop-color:#C0D5D5"/>
			</linearGradient>
			<polygon id="路径_8_" class="st11" points="187.5,92.7 247.8,83.1 247.8,158.8 187.5,177.2 			"/>
			
				<linearGradient id="路径_18_" gradientUnits="userSpaceOnUse" x1="-644.0432" y1="19.9168" x2="-644.0432" y2="19.0629" gradientTransform="matrix(88.1358 0 0 42.6049 56909.3633 -733.2375)">
				<stop  offset="1.198948e-03" style="stop-color:#E9F0F1"/>
				<stop  offset="0.9279" style="stop-color:#C0D5D5"/>
			</linearGradient>
			<polygon id="路径_9_" class="st12" points="120.7,86.1 104.7,113.2 172.1,126.1 187.5,92.7 			"/>
			
				<linearGradient id="路径_19_" gradientUnits="userSpaceOnUse" x1="-643.8141" y1="18.1417" x2="-643.8141" y2="19.1266" gradientTransform="matrix(84.8271 0 0 45.7407 54840.2383 -736.3712)">
				<stop  offset="1.198948e-03" style="stop-color:#E9F0F1"/>
				<stop  offset="0.9279" style="stop-color:#C0D5D5"/>
			</linearGradient>
			<polygon id="路径_10_" class="st13" points="187.5,92.7 206.4,126.1 267.2,110.9 247.8,83.1 			"/>
		</g>
	</g>
</g>
</svg>
