<?xml version="1.0" encoding="utf-8"?>
<!-- Generator: Adobe Illustrator 22.0.1, SVG Export Plug-In . SVG Version: 6.00 Build 0)  -->
<svg version="1.1" id="图层_1" xmlns="http://www.w3.org/2000/svg" xmlns:xlink="http://www.w3.org/1999/xlink" x="0px" y="0px"
	 viewBox="0 0 371 200" style="enable-background:new 0 0 371 200;" xml:space="preserve">
<style type="text/css">
	.st0{fill:url(#路径_4_);}
	.st1{fill:url(#路径_6_);}
	.st2{fill:url(#路径_7_);}
	.st3{fill:url(#形状结合_2_);}
	.st4{display:none;opacity:0.51;fill:url(#形状结合_3_);enable-background:new    ;}
	.st5{display:none;opacity:0.5;fill:url(#路径_8_);enable-background:new    ;}
	.st6{fill:#E6EEEE;}
	.st7{opacity:0.9;}
	.st8{fill:#D2DEDE;}
</style>
<g id="图层_2_1_">
</g>
<g id="图层_1_1_">
	<title>编组 18</title>
	<g id="页面-1">
		<g id="空状态图标备份" transform="translate(-535.000000, -819.000000)">
			<g id="编组-18" transform="translate(535.000000, 819.000000)">
				<g id="编组-2备份-7">
					
						<linearGradient id="路径_4_" gradientUnits="userSpaceOnUse" x1="-642.3151" y1="10.7256" x2="-641.1562" y2="13.5852" gradientTransform="matrix(63.9295 0 0 65.4068 41088.8008 -724.9227)">
						<stop  offset="0.5663" style="stop-color:#DEE9E9"/>
						<stop  offset="0.9708" style="stop-color:#FFFFFF;stop-opacity:0"/>
					</linearGradient>
					<path id="路径" class="st0" d="M73.3,159.6c-7.9-3.6-16.5-13.2-14.1-22.2c1.2-0.3,2.5,0.2,3.2,1.2c0,0,13.7,21.4,9.9,1.7
						c-1.8-9.3-4.9-18.2-5.2-27.8c-0.4-17.4,15.6-22.2,20.2-3c0.6,2.5,2.9,23.2,8.2,20.9c0.7-0.4,1.2-0.9,1.6-1.6
						c2.7-4.4,3.5-10.9,8.4-12.3c4.3-1.4,8.6,2.4,10.9,6.2c4.7,7.9,11,27.4,1.4,34C108,163.2,83.7,164.3,73.3,159.6L73.3,159.6z"/>
					
						<linearGradient id="路径_6_" gradientUnits="userSpaceOnUse" x1="-639.6155" y1="11.7182" x2="-640.1552" y2="13.1109" gradientTransform="matrix(59.2575 0 0 64.9717 38254.875 -687.4388)">
						<stop  offset="0.6291" style="stop-color:#DEE9E9"/>
						<stop  offset="1" style="stop-color:#FFFFFF;stop-opacity:0"/>
					</linearGradient>
					<path id="路径_1_" class="st1" d="M296.9,173.1c-2.9-6.7-2.8-17.4,3.8-21.7c0.9,0.5,1.4,1.5,1.2,2.6c0,0-3.5,21,5.2,6.6
						c4.1-6.8,7.2-14.1,12.4-20.2c9.5-11.1,22.1-5.1,14.2,9.4c-1,1.9-11.2,16.1-6.6,17.6c0.6,0.2,1.3,0.1,1.9-0.1
						c4.1-1.2,8.3-4.8,12.2-3c3.4,1.6,4,6.3,3.2,10c-1.5,7.5-8.8,15.9-18.5,14.6C316,187.6,300.7,181.8,296.9,173.1L296.9,173.1z"/>
					
						<linearGradient id="路径_7_" gradientUnits="userSpaceOnUse" x1="-649.7397" y1="13.6589" x2="-649.7397" y2="16.8704" gradientTransform="matrix(370.5185 0 0 51.8519 240926.0625 -674.5242)">
						<stop  offset="0.51" style="stop-color:#DDE9E8"/>
						<stop  offset="1" style="stop-color:#FFFFFF;stop-opacity:0"/>
					</linearGradient>
					<path id="路径_2_" class="st2" d="M370.8,200.3c-46.6-31.9-112.3-51.9-185.3-51.9S46.8,168.3,0.2,200.3H370.8z"/>
					
						<linearGradient id="形状结合_2_" gradientUnits="userSpaceOnUse" x1="-632.7993" y1="13.7315" x2="-633.4117" y2="15.7567" gradientTransform="matrix(35.7734 0 0 55.8532 22931.5254 -718.9524)">
						<stop  offset="0.4963" style="stop-color:#DEE9E9"/>
						<stop  offset="1" style="stop-color:#FFFFFF;stop-opacity:0"/>
					</linearGradient>
					<path id="形状结合" class="st3" d="M293.5,103.1c-3,3.7-4.8,9-3.1,13.6c1.2,3.2,4.9,3.3,4.6,7.8c-0.3,2.2-1,4.4-2.2,6.3
						c-2.1,3.6-4.6,7-7.6,10c2.5,1.9,3.7,5,3.3,8.1c-0.5,3.1-1.9,5.9-4.2,8.1c-0.7,0.8-1.5,1.4-2.5,1.8c-0.9,0.2-1.9,0.2-2.8,0
						c-4.6-0.8-9.1-2.2-13.2-4.2c-2.6-1.2-5.3-3-6.2-5.7c-1-3.1,0.6-4.1,2.4-5.1l0.5-0.3c0.9-0.5,1.8-1.1,2.3-1.9
						c1.3-2.1,1.3-5,1.8-7.3c0.7-3.5-0.3-9.9,4-11.2c1.7-0.5,3.5-0.4,5.2-1c3.7-1.2,5.2-4.6,6.7-8.1l0.3-0.6c0.8-2,1.7-4,3-5.5
						C287.6,105.6,292.2,104.6,293.5,103.1z M282.8,123.8c0,0-13.3,15.5-12.9,29.8h4.3C274.2,153.6,275.8,136.3,282.8,123.8z"/>
				</g>
				<g id="网络缺省页" transform="translate(122.000000, 60.000000)">
					
						<linearGradient id="形状结合_3_" gradientUnits="userSpaceOnUse" x1="-890.9722" y1="8.303" x2="-890.9722" y2="9.303" gradientTransform="matrix(144 0 0 99 128372 -811)">
						<stop  offset="0" style="stop-color:#E9E9E9"/>
						<stop  offset="1" style="stop-color:#CCCCCC"/>
					</linearGradient>
					<path id="形状结合_1_" class="st4" d="M66.3,103.1c3-3.3,9.4-3.3,12.4,0l0,0l-6.2,6.9L66.3,103.1z M65.3,77.7l-0.1,0.4
						l-3.5,19c-0.6,0.4-1.1,0.9-1.6,1.4l0,0L47.7,85.7C52.5,80.9,59,78.9,65.3,77.7L65.3,77.7z M77.7,76.7
						c6.4,1.2,13.7,2.7,18.7,7.9l0,0L83.5,98.5c-3.6-3.8-9.3-6.5-14.1-6l0,0l6.4-11.7L77.7,76.7z M72.5,44.3L70,60.8
						c-12.1,0.8-23.5,6.1-32,14.8l0,0L24.9,62c9.3-9.5,22-14.1,34-16.8l0,0L58.5,47h7.2L72.5,44.3z M92.9,46.4
						c9.8,3.1,20.5,7.3,28.3,15.1l0,0l-13.1,13.1c-6.4-6.4-15-11.6-23.1-13.8l0,0L92.9,46.4z M94,13.1c17.8,4,36.1,11.6,50,25.5l0,0
						l-13.1,13.1c-9.3-9.2-20.9-17.2-32.5-21.2l0,0l3.8-6.1L93.5,25l-4.4,0L94,13.1z M65.3,11l-4.1,17
						c-18.3,2.2-35.4,10.6-48.4,23.6l0,0L0,38.8C17.9,20.9,41.9,12.4,65.3,11L65.3,11z"/>
					
						<linearGradient id="路径_8_" gradientUnits="userSpaceOnUse" x1="-58" y1="103.5" x2="-27" y2="103.5" gradientTransform="matrix(1 0 0 -1 122 142)">
						<stop  offset="0" style="stop-color:#E9E9E9"/>
						<stop  offset="1" style="stop-color:#CCCCCC"/>
					</linearGradient>
					<polygon id="路径_5_" class="st5" points="74.8,0.9 93.1,0 83.9,28.4 95,27.3 70.6,77 79.5,38.9 64,38.1 					"/>
					<path id="路径_3_" class="st6" d="M70.7,76"/>
				</g>
			</g>
		</g>
	</g>
	<g id="编组-9" transform="translate(129.000000, 59.000000)" class="st7">
		<polygon id="路径-87备份" class="st6" points="91.9,-1 125.9,9.1 104.3,112 61.9,96.1 77.9,75.5 70.1,33 		"/>
		<ellipse id="椭圆形" class="st8" cx="98.6" cy="31" rx="10.5" ry="12"/>
		<polygon id="路径-15备份" class="st6" points="-1,-7 68.2,-7 53.7,29.3 68.2,70.4 57.5,98 -1,98 		"/>
		<polygon id="路径-65" class="st8" points="-1,81.9 40.3,31 68.2,70.4 57.5,98 -1,98 		"/>
		<polygon id="路径-88" class="st8" points="105.9,102.2 81.9,57 75.1,60.4 76.9,76.4 61.9,96.1 103.6,112 		"/>
	</g>
</g>
</svg>
