<?xml version="1.0" standalone="no"?><!DOCTYPE svg PUBLIC "-//W3C//DTD SVG 1.1//EN" "http://www.w3.org/Graphics/SVG/1.1/DTD/svg11.dtd"><svg t="1611802866553" class="icon" viewBox="0 0 1097 1024" version="1.1" xmlns="http://www.w3.org/2000/svg" p-id="10941" xmlns:xlink="http://www.w3.org/1999/xlink" width="17.140625" height="16"><defs><style type="text/css"></style></defs><path d="M36.571429 0h1024v1024H36.571429z" fill="#2c2c2c" fill-opacity=".03" opacity=".238" p-id="10942"></path><path d="M41.545143 310.966857C174.665143 539.757714 326.912 621.714286 548.571429 621.714286c221.659429 0 373.869714-81.956571 507.026285-310.747429A36.571429 36.571429 0 0 0 992.402286 274.176C872.740571 479.744 744.923429 548.571429 548.571429 548.571429 352.182857 548.571429 224.402286 479.744 104.740571 274.176a36.571429 36.571429 0 0 0-63.195428 36.790857z" fill="#2c2c2c" p-id="10943"></path><path d="M512 585.142857m36.571429 0l0 0q36.571429 0 36.571428 36.571429l0 109.714285q0 36.571429-36.571428 36.571429l0 0q-36.571429 0-36.571429-36.571429l0-109.714285q0-36.571429 36.571429-36.571429Z" fill="#2c2c2c" p-id="10944"></path><path d="M727.185357 579.106249m31.671786-18.285714l0 0q31.671786-18.285714 49.9575 13.386071l54.857143 95.015359q18.285714 31.671786-13.386072 49.9575l0 0q-31.671786 18.285714-49.9575-13.386071l-54.857143-95.015359q-18.285714-31.671786 13.386072-49.9575Z" fill="#2c2c2c" p-id="10945"></path><path d="M883.988951 423.708761m25.859905-25.859905l0 0q25.859905-25.859905 51.71981 0l103.439621 103.439621q25.859905 25.859905 0 51.71981l0 0q-25.859905 25.859905-51.71981 0l-103.439621-103.439621q-25.859905-25.859905 0-51.71981Z" fill="#2c2c2c" p-id="10946"></path><path d="M306.613928 542.53482m31.671786 18.285715l0 0q31.671786 18.285714 13.386072 49.9575l-54.857143 95.015359q-18.285714 31.671786-49.9575 13.386071l0 0q-31.671786-18.285714-13.386072-49.9575l54.857143-95.015359q18.285714-31.671786 49.9575-13.386071Z" fill="#2c2c2c" p-id="10947"></path><path d="M161.434096 371.988951m25.859905 25.859905l0 0q25.859905 25.859905 0 51.71981l-103.43962 103.439621q-25.859905 25.859905-51.719811 0l0 0q-25.859905-25.859905 0-51.71981l103.439621-103.439621q25.859905-25.859905 51.71981 0Z" fill="#2c2c2c" p-id="10948"></path></svg>