<?xml version="1.0" standalone="no"?><!DOCTYPE svg PUBLIC "-//W3C//DTD SVG 1.1//EN" "http://www.w3.org/Graphics/SVG/1.1/DTD/svg11.dtd"><svg t="1611802809926" class="icon" viewBox="0 0 1024 1024" version="1.1" xmlns="http://www.w3.org/2000/svg" p-id="9041" xmlns:xlink="http://www.w3.org/1999/xlink" width="16" height="16"><defs><style type="text/css"></style></defs><path d="M512 512m-178 0a178 178 0 1 0 356 0 178 178 0 1 0-356 0Z" fill="#2c2c2c" p-id="9042"></path><path d="M512 212C229.8 212 1 434.6 1 512s228.8 300 511 300 511-222.6 511-300-228.8-300-511-300z m157 457c-41.9 41.9-97.7 65-157 65s-115-23.1-157-65c-41.9-41.9-65-97.7-65-157s23.1-115 65-157c41.9-41.9 97.7-65 157-65s115 23.1 157 65c41.9 41.9 65 97.7 65 157s-23.1 115-65 157z" fill="#2c2c2c" p-id="9043"></path></svg>