<?xml version="1.0" standalone="no"?><!DOCTYPE svg PUBLIC "-//W3C//DTD SVG 1.1//EN" "http://www.w3.org/Graphics/SVG/1.1/DTD/svg11.dtd"><svg t="1611821009030" class="icon" viewBox="0 0 1024 1024" version="1.1" xmlns="http://www.w3.org/2000/svg" p-id="6514" xmlns:xlink="http://www.w3.org/1999/xlink" width="16" height="16"><defs><style type="text/css"></style></defs><path d="M618.24 439.381333a152.746667 152.746667 0 0 1 0 216l-135.893333 135.893334a163.370667 163.370667 0 1 1-231.04-231.04l66.922666-66.944 45.269334 45.269333-66.944 66.944a99.370667 99.370667 0 1 0 140.522666 140.522667l135.893334-135.893334a88.746667 88.746667 0 0 0 0-125.482666z m182.528-197.589333a163.370667 163.370667 0 0 1 0 231.04L733.866667 539.776l-45.269334-45.248 66.944-66.944a99.370667 99.370667 0 1 0-140.522666-140.522667l-135.893334 135.893334a88.746667 88.746667 0 0 0 0 125.482666l-45.269333 45.269334a152.746667 152.746667 0 0 1 0-216l135.893333-135.893334a163.370667 163.370667 0 0 1 231.04 0z" p-id="6515"></path></svg>