<?xml version="1.0" standalone="no"?><!DOCTYPE svg PUBLIC "-//W3C//DTD SVG 1.1//EN" "http://www.w3.org/Graphics/SVG/1.1/DTD/svg11.dtd"><svg t="1611576345111" class="icon" viewBox="0 0 1024 1024" version="1.1" xmlns="http://www.w3.org/2000/svg" p-id="6645" xmlns:xlink="http://www.w3.org/1999/xlink" width="16" height="16"><defs><style type="text/css"></style></defs><path d="M448.362667 166.826667l113.6 0.170666a64 64 0 0 1 63.893333 63.914667l0.042667 18.517333a301.461333 301.461333 0 0 1 62.101333 34.88l15.210667-8.746666a64 64 0 0 1 87.296 23.381333l56.938666 98.304a64 64 0 0 1-19.989333 85.397333l-3.477333 2.133334-15.274667 8.810666c2.624 24.234667 2.304 48.853333-1.130667 73.322667l10.794667 6.250667a64 64 0 0 1 25.216 84.117333l-1.770667 3.306667-53.333333 92.373333a64 64 0 0 1-84.117333 25.216l-3.328-1.792-14.741334-8.533333a298.538667 298.538667 0 0 1-59.626666 33.28v25.386666a64 64 0 0 1-59.989334 63.957334l-4.074666 0.128-113.6-0.170667a64 64 0 0 1-63.893334-63.893333l-0.064-30.613334a302.613333 302.613333 0 0 1-50.069333-29.696l-27.221333 15.658667a64 64 0 0 1-87.296-23.402667l-56.938667-98.282666a64 64 0 0 1 19.989333-85.418667l3.477334-2.133333 27.690666-15.936c-2.133333-20.266667-2.24-40.768-0.192-61.226667l-30.741333-17.770667A64 64 0 0 1 158.506667 393.6l1.792-3.306667 53.333333-92.373333a64 64 0 0 1 84.117333-25.216l3.306667 1.792 26.794667 15.466667a297.984 297.984 0 0 1 56.426666-34.666667v-24.362667a64 64 0 0 1 59.989334-63.978666l4.074666-0.128z m-0.085334 64l0.064 65.066666-36.778666 17.301334c-15.744 7.402667-30.613333 16.533333-44.309334 27.221333l-34.005333 26.538667-62.570667-36.138667-1.6-0.896-53.333333 92.373333 66.56 38.421334-4.138667 41.152c-1.6 15.978667-1.536 32.106667 0.149334 48.085333l4.394666 41.429333-63.786666 36.736 56.917333 98.282667 63.338667-36.416 33.6 24.597333a237.994667 237.994667 0 0 0 39.466666 23.424l36.736 17.258667 0.128 71.168 113.578667 0.170667-0.064-68.16 39.466667-16.426667a234.538667 234.538667 0 0 0 46.826666-26.112l33.578667-24.128 50.56 29.184 53.290667-92.394667-48.128-27.818666 5.973333-42.688c2.666667-19.093333 2.965333-38.421333 0.896-57.6l-4.48-41.450667 51.456-29.696-56.938667-98.282667-51.2 29.504-33.621333-24.512a238.037333 238.037333 0 0 0-48.938667-27.498666l-39.381333-16.341334-0.128-61.184-113.578667-0.170666z m127.381334 183.722666a128.170667 128.170667 0 0 1 46.890666 174.933334 127.829333 127.829333 0 0 1-174.762666 46.848 128.170667 128.170667 0 0 1-46.869334-174.933334 127.829333 127.829333 0 0 1 174.741334-46.848z m-119.317334 78.805334a64.170667 64.170667 0 0 0 23.466667 87.573333 63.829333 63.829333 0 0 0 87.296-23.402667 64.170667 64.170667 0 0 0-20.266667-85.589333l-3.2-1.984-3.306666-1.770667a63.829333 63.829333 0 0 0-83.989334 25.173334z" p-id="6646"></path></svg>
