<?xml version="1.0" standalone="no"?><!DOCTYPE svg PUBLIC "-//W3C//DTD SVG 1.1//EN" "http://www.w3.org/Graphics/SVG/1.1/DTD/svg11.dtd"><svg t="1614417824498" class="icon" viewBox="0 0 1024 1024" version="1.1" xmlns="http://www.w3.org/2000/svg" p-id="32333" xmlns:xlink="http://www.w3.org/1999/xlink" width="128" height="128"><defs><style type="text/css"></style></defs><path d="M73.363806 586.747516V349.441184c0-38.052036 30.441629-68.493664 68.493664-68.493664H788.742078c37.360181 0 67.801809 30.441629 67.801809 67.801809v457.316284c0 37.360181-30.441629 67.801809-67.801809 67.80181H141.165615c-37.360181 0-67.801809-30.441629-67.801809-67.80181v-16.604524" fill="#3973F4" p-id="32334"></path><path d="M812.265155 443.533491H197.897741l268.439816-268.439816c3.459276-3.459276 6.918552-6.226697 11.069683-8.302262 0.691855-0.691855 1.38371-0.691855 2.075566-1.383711 1.38371-0.691855 3.459276-1.38371 4.842986-2.075565 13.145249-5.534842 27.674208-5.534842 40.819457 0 1.38371 0.691855 3.459276 1.38371 4.842986 2.075565 0.691855 0.691855 1.38371 0.691855 2.075566 1.383711 0.691855 0 0.691855 0.691855 1.38371 0.691855 2.075566 1.38371 4.151131 2.767421 5.534842 4.151131 1.38371 1.38371 2.767421 2.767421 4.151131 3.459276l269.131671 268.439816z" fill="#C5DCFA" p-id="32335"></path><path d="M732.009952 462.213581L535.523077 265.726706c-18.68009 18.68009-48.429864 18.68009-67.109954 0L271.234392 462.905436" fill="#FFFFFF" p-id="32336"></path><path d="M857.927598 414.475573H144.624891C105.189145 413.091862 74.055661 380.574668 74.055661 341.138922v609.524427c0 40.819457 33.209049 73.336651 73.336651 73.336651H857.927598c40.819457 0 73.336651-33.209049 73.33665-73.336651V487.812223c0.691855-40.127601-32.517194-73.336651-73.33665-73.33665z" fill="#4988FD" p-id="32337"></path><path d="M902.898185 972.11086h-6.918551c-5.534842 0-10.377828-4.842986-10.377828-10.377828s4.842986-10.377828 10.377828-10.377828h6.918551c5.534842 0 10.377828 4.842986 10.377828 10.377828s-4.151131 10.377828-10.377828 10.377828z m-55.348415 0h-6.918552c-5.534842 0-10.377828-4.842986-10.377828-10.377828s4.842986-10.377828 10.377828-10.377828h6.918552c5.534842 0 10.377828 4.842986 10.377828 10.377828s-4.151131 10.377828-10.377828 10.377828z m-55.348416 0h-6.918552c-5.534842 0-10.377828-4.842986-10.377828-10.377828s4.842986-10.377828 10.377828-10.377828h6.918552c5.534842 0 10.377828 4.842986 10.377828 10.377828s-4.151131 10.377828-10.377828 10.377828z m-55.348415 0h-6.918552c-5.534842 0-10.377828-4.842986-10.377828-10.377828s4.842986-10.377828 10.377828-10.377828h6.918552c5.534842 0 10.377828 4.842986 10.377827 10.377828s-4.151131 10.377828-10.377827 10.377828z m-55.348416 0h-6.918552c-5.534842 0-10.377828-4.842986-10.377828-10.377828s4.842986-10.377828 10.377828-10.377828h6.918552c5.534842 0 10.377828 4.842986 10.377828 10.377828s-4.151131 10.377828-10.377828 10.377828z m-55.348416 0h-6.918552c-5.534842 0-10.377828-4.842986-10.377828-10.377828s4.842986-10.377828 10.377828-10.377828h6.918552c5.534842 0 10.377828 4.842986 10.377828 10.377828s-4.151131 10.377828-10.377828 10.377828z m-55.348415 0h-6.918552c-5.534842 0-10.377828-4.842986-10.377828-10.377828s4.842986-10.377828 10.377828-10.377828h6.918552c5.534842 0 10.377828 4.842986 10.377828 10.377828s-4.151131 10.377828-10.377828 10.377828z m-55.348416 0h-6.918552c-5.534842 0-10.377828-4.842986-10.377828-10.377828s4.842986-10.377828 10.377828-10.377828h6.918552c5.534842 0 10.377828 4.842986 10.377828 10.377828s-4.151131 10.377828-10.377828 10.377828z m-55.348416 0h-6.918552c-5.534842 0-10.377828-4.842986-10.377828-10.377828s4.842986-10.377828 10.377828-10.377828h6.918552c5.534842 0 10.377828 4.842986 10.377828 10.377828s-4.151131 10.377828-10.377828 10.377828z m-55.348415 0h-6.918552c-5.534842 0-10.377828-4.842986-10.377828-10.377828s4.842986-10.377828 10.377828-10.377828h6.918552c5.534842 0 10.377828 4.842986 10.377828 10.377828s-4.151131 10.377828-10.377828 10.377828z m-55.348416 0h-6.918552c-5.534842 0-10.377828-4.842986-10.377828-10.377828s4.842986-10.377828 10.377828-10.377828h6.918552c5.534842 0 10.377828 4.842986 10.377828 10.377828s-4.151131 10.377828-10.377828 10.377828z m-55.348416 0h-6.918552c-5.534842 0-10.377828-4.842986-10.377827-10.377828s4.842986-10.377828 10.377827-10.377828h6.918552c5.534842 0 10.377828 4.842986 10.377828 10.377828s-4.151131 10.377828-10.377828 10.377828z m-55.348415 0h-6.918552c-5.534842 0-10.377828-4.842986-10.377828-10.377828s4.842986-10.377828 10.377828-10.377828h6.918552c5.534842 0 10.377828 4.842986 10.377828 10.377828s-4.151131 10.377828-10.377828 10.377828z m-55.348416 0h-6.918552c-5.534842 0-10.377828-4.842986-10.377828-10.377828s4.842986-10.377828 10.377828-10.377828h6.918552c5.534842 0 10.377828 4.842986 10.377828 10.377828s-4.151131 10.377828-10.377828 10.377828z m-37.36018-29.057918c-5.534842 0-10.377828-4.842986-10.377828-10.377828v-6.918552c0-5.534842 4.842986-10.377828 10.377828-10.377828s10.377828 4.842986 10.377828 10.377828v6.918552c0 5.534842-4.842986 10.377828-10.377828 10.377828z m0-55.348416c-5.534842 0-10.377828-4.842986-10.377828-10.377827v-6.918552c0-5.534842 4.842986-10.377828 10.377828-10.377828s10.377828 4.842986 10.377828 10.377828v6.918552c0 5.534842-4.842986 10.377828-10.377828 10.377827z m0-55.348415c-5.534842 0-10.377828-4.842986-10.377828-10.377828v-6.918552c0-5.534842 4.842986-10.377828 10.377828-10.377828s10.377828 4.842986 10.377828 10.377828v6.918552c0 5.534842-4.842986 10.377828-10.377828 10.377828z m0-55.348416c-5.534842 0-10.377828-4.842986-10.377828-10.377828v-6.918552c0-5.534842 4.842986-10.377828 10.377828-10.377828s10.377828 4.842986 10.377828 10.377828v6.918552c0 5.534842-4.842986 10.377828-10.377828 10.377828z m0-55.348415c-5.534842 0-10.377828-4.842986-10.377828-10.377828v-6.918552c0-5.534842 4.842986-10.377828 10.377828-10.377828s10.377828 4.842986 10.377828 10.377828v6.918552c0 5.534842-4.842986 10.377828-10.377828 10.377828z m0-55.348416c-5.534842 0-10.377828-4.842986-10.377828-10.377828v-6.918552c0-5.534842 4.842986-10.377828 10.377828-10.377828s10.377828 4.842986 10.377828 10.377828v6.918552c0 5.534842-4.842986 10.377828-10.377828 10.377828z m0-55.348416c-5.534842 0-10.377828-4.842986-10.377828-10.377828v-6.918552c0-5.534842 4.842986-10.377828 10.377828-10.377828s10.377828 4.842986 10.377828 10.377828v6.918552c0 5.534842-4.842986 10.377828-10.377828 10.377828z m0-55.348415c-5.534842 0-10.377828-4.842986-10.377828-10.377828v-6.918552c0-5.534842 4.842986-10.377828 10.377828-10.377828s10.377828 4.842986 10.377828 10.377828v6.918552c0 5.534842-4.842986 10.377828-10.377828 10.377828z m5.534841-53.964706c-2.075566 0-4.151131-0.691855-6.226697-2.075565-4.842986-3.459276-5.534842-9.685973-2.075565-14.528959 2.075566-2.767421 4.151131-4.842986 6.226697-6.918552 4.151131-3.459276 11.069683-2.767421 14.528959 1.38371 3.459276 4.151131 2.767421 11.069683-1.383711 14.528959-1.38371 0.691855-2.075566 2.075566-2.767421 3.459276-2.075566 2.767421-5.534842 4.151131-8.302262 4.151131z m722.988679-11.069683h-6.918552c-5.534842 0-10.377828-4.842986-10.377827-10.377828s4.842986-10.377828 10.377827-10.377828h6.918552c5.534842 0 10.377828 4.842986 10.377828 10.377828s-4.842986 10.377828-10.377828 10.377828z m-55.348415 0h-6.918552c-5.534842 0-10.377828-4.842986-10.377828-10.377828s4.842986-10.377828 10.377828-10.377828h6.918552c5.534842 0 10.377828 4.842986 10.377828 10.377828s-4.842986 10.377828-10.377828 10.377828z m-55.348416 0h-6.918552c-5.534842 0-10.377828-4.842986-10.377828-10.377828s4.842986-10.377828 10.377828-10.377828h6.918552c5.534842 0 10.377828 4.842986 10.377828 10.377828s-4.842986 10.377828-10.377828 10.377828z m-55.348415 0h-6.918552c-5.534842 0-10.377828-4.842986-10.377828-10.377828s4.842986-10.377828 10.377828-10.377828h6.918552c5.534842 0 10.377828 4.842986 10.377827 10.377828s-4.842986 10.377828-10.377827 10.377828z m-55.348416 0h-6.918552c-5.534842 0-10.377828-4.842986-10.377828-10.377828s4.842986-10.377828 10.377828-10.377828h6.918552c5.534842 0 10.377828 4.842986 10.377828 10.377828s-4.842986 10.377828-10.377828 10.377828z m-55.348416 0h-6.918552c-5.534842 0-10.377828-4.842986-10.377828-10.377828s4.842986-10.377828 10.377828-10.377828h6.918552c5.534842 0 10.377828 4.842986 10.377828 10.377828s-4.842986 10.377828-10.377828 10.377828z m-55.348415 0h-6.918552c-5.534842 0-10.377828-4.842986-10.377828-10.377828s4.842986-10.377828 10.377828-10.377828h6.918552c5.534842 0 10.377828 4.842986 10.377828 10.377828s-4.842986 10.377828-10.377828 10.377828z m-55.348416 0h-6.918552c-5.534842 0-10.377828-4.842986-10.377828-10.377828s4.842986-10.377828 10.377828-10.377828h6.918552c5.534842 0 10.377828 4.842986 10.377828 10.377828s-4.842986 10.377828-10.377828 10.377828z m-55.348416 0h-6.918552c-5.534842 0-10.377828-4.842986-10.377828-10.377828s4.842986-10.377828 10.377828-10.377828h6.918552c5.534842 0 10.377828 4.842986 10.377828 10.377828s-4.842986 10.377828-10.377828 10.377828z m-55.348415 0h-6.918552c-5.534842 0-10.377828-4.842986-10.377828-10.377828s4.842986-10.377828 10.377828-10.377828h6.918552c5.534842 0 10.377828 4.842986 10.377828 10.377828s-4.842986 10.377828-10.377828 10.377828z m-55.348416 0h-6.918552c-5.534842 0-10.377828-4.842986-10.377828-10.377828s4.842986-10.377828 10.377828-10.377828h6.918552c5.534842 0 10.377828 4.842986 10.377828 10.377828s-4.842986 10.377828-10.377828 10.377828z m-55.348416 0h-6.918552c-5.534842 0-10.377828-4.842986-10.377827-10.377828s4.842986-10.377828 10.377827-10.377828h6.918552c5.534842 0 10.377828 4.842986 10.377828 10.377828s-4.842986 10.377828-10.377828 10.377828z m-55.348415 0h-6.918552c-5.534842 0-10.377828-4.842986-10.377828-10.377828s4.842986-10.377828 10.377828-10.377828h6.918552c5.534842 0 10.377828 4.842986 10.377828 10.377828s-4.842986 10.377828-10.377828 10.377828zM931.264248 680.839823v172.271944H754.841174c-25.598642 0-48.429864-11.069683-64.342534-29.057919-13.837104-15.220814-22.139366-35.284615-22.139366-57.423981 0-23.523077 9.685973-44.970588 24.906787-60.883257 15.912669-15.220814 37.360181-24.906787 60.883257-24.906787h177.11493z" fill="#3973F4" p-id="32338"></path><path d="M953.403615 638.636656v172.271944H753.457463c-25.598642 0-48.429864-11.069683-64.342533-29.057918-13.837104-15.220814-22.139366-35.284615-22.139366-57.423982 0-23.523077 9.685973-44.970588 24.906787-60.883257 15.912669-15.220814 37.360181-24.906787 60.883257-24.906787h200.638007z" fill="#6097FD" p-id="32339"></path><path d="M738.928504 689.142085c4.842986-2.075566 10.377828-3.459276 16.604525-3.459276 24.214932 0 44.278733 19.371945 44.278732 44.278733 0 24.214932-19.371945 44.278733-44.278732 44.278732-24.906787 0-44.278733-19.371945-44.278733-44.278732 0-13.837104 6.226697-25.598642 15.91267-33.900905" fill="#C5DCFA" p-id="32340"></path><path d="M727.166966 696.060637c3.459276-2.767421 7.610407-5.534842 11.761538-6.918552" fill="#FFFFFF" p-id="32341"></path><path d="M633.074659 18.734401c-7.610407 0-13.837104 6.226697-13.837104 13.837104v3.459276c0 7.610407 6.226697 13.837104 13.837104 13.837104s13.837104-6.226697 13.837104-13.837104v-3.459276c0-7.610407-6.226697-13.837104-13.837104-13.837104zM633.074659 55.402726c-7.610407 0-13.837104 6.226697-13.837104 13.837104v78.179637c0 7.610407 6.226697 13.837104 13.837104 13.837104s13.837104-6.226697 13.837104-13.837104V69.23983c0-7.610407-6.226697-13.837104-13.837104-13.837104zM810.189589 124.588246c-4.151131-6.226697-13.145249-8.302262-19.371945-3.459276L693.266061 186.855213c-6.226697 4.151131-8.302262 13.145249-3.459276 19.371946 2.767421 4.151131 6.918552 6.226697 11.761539 6.226697 2.767421 0 5.534842-0.691855 7.610407-2.075566l97.551582-65.726244c6.226697-5.534842 7.610407-13.837104 3.459276-20.0638zM752.073753 39.490057c2.075566 1.38371 4.842986 2.075566 6.918552 2.075565 4.842986 0 8.994118-2.075566 11.761538-6.918552l8.302262-13.145248c4.151131-6.226697 2.075566-15.220814-4.842986-19.371946-6.226697-4.151131-15.220814-2.075566-19.371945 4.842987l-8.302263 13.145248c-3.459276 6.918552-1.38371 15.912669 5.534842 19.371946zM698.800903 152.262454l51.197284-83.022624c4.151131-6.226697 2.075566-15.220814-4.842986-19.371945-6.226697-4.151131-15.220814-2.075566-19.371946 4.842986l-51.197284 83.022624c-4.151131 6.226697-2.075566 15.220814 4.842986 19.371945 2.075566 1.38371 4.842986 2.075566 6.918552 2.075566 5.534842 0 9.685973-2.767421 12.453394-6.918552z" fill="#C5DCFA" p-id="32342"></path></svg>