<?xml version="1.0" standalone="no"?><!DOCTYPE svg PUBLIC "-//W3C//DTD SVG 1.1//EN" "http://www.w3.org/Graphics/SVG/1.1/DTD/svg11.dtd"><svg t="1614417862525" class="icon" viewBox="0 0 1024 1024" version="1.1" xmlns="http://www.w3.org/2000/svg" p-id="35277" xmlns:xlink="http://www.w3.org/1999/xlink" width="128" height="128"><defs><style type="text/css"></style></defs><path d="M908.54 584.68H751.6c-24.87 0-45.03-20.16-45.03-45.03v-64.32c0-24.87 20.16-45.03 45.03-45.03h156.94c24.87 0 45.03 20.16 45.03 45.03v64.32c0 24.87-20.16 45.03-45.03 45.03z" fill="#CC9E44" p-id="35278"></path><path d="M839.72 797.38H175.48c-37.3 0-67.54-30.24-67.54-67.54V258.79c0-37.3 30.24-67.54 67.54-67.54h664.23c37.3 0 67.54 30.24 67.54 67.54v471.04c0.01 37.31-30.23 67.55-67.53 67.55z" fill="#B52331" p-id="35279"></path><path d="M742.6 440.96L360.91 560.24c-9.01 2.82-18.6-2.21-21.41-11.22l-78.11-249.94c-2.82-9.01 2.21-18.6 11.22-21.41L654.3 158.39c9.01-2.82 18.6 2.21 21.41 11.22l78.11 249.94c2.81 9.01-2.21 18.59-11.22 21.41z" fill="#CC9E44" p-id="35280"></path><path d="M829.65 440.96L447.96 560.24c-9.01 2.82-18.6-2.21-21.41-11.22l-78.11-249.94c-2.82-9.01 2.21-18.6 11.22-21.41l381.69-119.28c9.01-2.82 18.6 2.21 21.41 11.22l78.11 249.94c2.81 9.01-2.21 18.59-11.22 21.41z" fill="#F2C14F" p-id="35281"></path><path d="M839.72 865.99H175.48c-37.3 0-67.54-30.24-67.54-67.54V259.86c0.17-14.08 3.4-25.9 9.5-35.63 4.99 20.89 23.66 35.63 45.14 35.63h677.14c37.3 0 67.54 30.24 67.54 67.54v471.04c0 37.31-30.24 67.55-67.54 67.55z" fill="#CF262F" p-id="35282"></path><path d="M175.48 837.85c-21.73 0-39.41-17.68-39.41-39.41V283.17c8.27 3.13 17.22 4.82 26.51 4.82h677.14c21.73 0 39.41 17.68 39.41 39.41v471.05c0 21.73-17.68 39.41-39.41 39.41H175.48z" fill="#DC2933" p-id="35283"></path><path d="M908.54 612.12H751.6c-24.87 0-45.03-20.16-45.03-45.03v-64.32c0-24.87 20.16-45.03 45.03-45.03h177.96s14.44-3.29 5.98-18.46c16.03 11.6 18.03 31.18 18.03 31.18v96.62c0 24.89-20.16 45.04-45.03 45.04z" fill="#F2C14F" p-id="35284"></path></svg>