<?xml version="1.0" standalone="no"?><!DOCTYPE svg PUBLIC "-//W3C//DTD SVG 1.1//EN" "http://www.w3.org/Graphics/SVG/1.1/DTD/svg11.dtd"><svg t="1614417908399" class="icon" viewBox="0 0 1024 1024" version="1.1" xmlns="http://www.w3.org/2000/svg" p-id="39277" xmlns:xlink="http://www.w3.org/1999/xlink" width="128" height="128"><defs><style type="text/css"></style></defs><path d="M170.666667 170.666667h682.666666a85.333333 85.333333 0 0 1 85.333334 85.333333v512a85.333333 85.333333 0 0 1-85.333334 85.333333H170.666667a85.333333 85.333333 0 0 1-85.333334-85.333333V256a85.333333 85.333333 0 0 1 85.333334-85.333333z" fill="#000000" opacity=".3" p-id="39278"></path><path d="M789.333333 469.333333h-554.666666A64 64 0 0 0 170.666667 533.333333v21.333334h195.669333a42.666667 42.666667 0 0 1 30.165333 12.501333l42.666667 42.666667a102.997333 102.997333 0 0 0 145.664 0l42.666667-42.666667a42.666667 42.666667 0 0 1 30.165333-12.501333H853.333333v-21.333334a64 64 0 0 0-64-64zM234.666667 256A64 64 0 0 0 170.666667 320V341.333333h682.666666v-21.333333A64 64 0 0 0 789.333333 256h-554.666666z" fill="#000000" p-id="39279"></path></svg>