<?xml version="1.0" standalone="no"?><!DOCTYPE svg PUBLIC "-//W3C//DTD SVG 1.1//EN" "http://www.w3.org/Graphics/SVG/1.1/DTD/svg11.dtd"><svg t="1616769202205" class="icon" viewBox="0 0 1024 1024" version="1.1" xmlns="http://www.w3.org/2000/svg" p-id="2084" xmlns:xlink="http://www.w3.org/1999/xlink" width="200" height="200"><defs><style type="text/css"></style></defs><path d="M170.24 138.24l538.88 227.84c15.36 6.4 24.32 20.48 24.32 37.12v453.12c0 21.76-17.92 39.68-39.68 39.68-5.12 0-10.24-1.28-15.36-2.56L139.52 665.6c-14.08-6.4-24.32-21.76-24.32-37.12V175.36c0-21.76 17.92-39.68 39.68-39.68 5.12 0 11.52 1.28 15.36 2.56z" fill="#2453EF" p-id="2085"></path><path d="M282.88 128l576 25.6c21.76 1.28 38.4 17.92 38.4 39.68v441.6c0 33.28-26.88 60.16-60.16 60.16h-39.68c-11.52 0-20.48-8.96-20.48-20.48V349.44l-458.24-192-38.4-15.36c-3.84-1.28-5.12-5.12-3.84-8.96 0-2.56 2.56-5.12 6.4-5.12z" fill="#C7EDFE" p-id="2086"></path><path d="M734.72 665.6v192c0 21.76-16.64 38.4-38.4 38.4-5.12 0-10.24-1.28-15.36-2.56L140.8 665.6h593.92z" fill="#57B4FD" p-id="2087"></path></svg>
