<?xml version="1.0" standalone="no"?><!DOCTYPE svg PUBLIC "-//W3C//DTD SVG 1.1//EN" "http://www.w3.org/Graphics/SVG/1.1/DTD/svg11.dtd"><svg t="1616769474434" class="icon" viewBox="0 0 1210 1024" version="1.1" xmlns="http://www.w3.org/2000/svg" p-id="5907" xmlns:xlink="http://www.w3.org/1999/xlink" width="236.328125" height="200"><defs><style type="text/css"></style></defs><path d="M1177.786182 811.380364H826.368a151.055515 151.055515 0 0 1-150.993455-151.055516v-60.198787a151.055515 151.055515 0 0 1 150.993455-151.055516h351.418182c12.288 0 22.248727 9.960727 22.248727 22.248728v317.812363a22.248727 22.248727 0 0 1-22.248727 22.248728" fill="#F9D11F" p-id="5908"></path><path d="M906.27103 750.002424H208.368485V60.695273C208.368485 27.182545 235.52 0 269.032727 0h576.543031c33.512727 0 60.664242 27.182545 60.664242 60.695273V750.002424z" fill="#60C194" p-id="5909"></path><path d="M1006.405818 1010.439758H87.381333A87.350303 87.350303 0 0 1 0 923.089455V337.392485a87.350303 87.350303 0 0 1 87.381333-87.381333h919.024485a87.319273 87.319273 0 0 1 87.350303 87.381333v585.69697a87.350303 87.350303 0 0 1-87.350303 87.350303" fill="#FF7E50" p-id="5910"></path><path d="M862.673455 449.070545a181.154909 181.154909 0 1 0 0 362.309819h231.082666V449.070545h-231.082666z" fill="#ED4042" p-id="5911"></path><path d="M800.271515 630.225455a56.226909 56.226909 0 1 0 112.453818 0 56.226909 56.226909 0 0 0-112.484848 0" fill="#FFFFFF" p-id="5912"></path></svg>
