<?xml version="1.0" standalone="no"?><!DOCTYPE svg PUBLIC "-//W3C//DTD SVG 1.1//EN" "http://www.w3.org/Graphics/SVG/1.1/DTD/svg11.dtd"><svg t="1616769239457" class="icon" viewBox="0 0 1024 1024" version="1.1" xmlns="http://www.w3.org/2000/svg" p-id="3074" xmlns:xlink="http://www.w3.org/1999/xlink" width="200" height="200"><defs><style type="text/css"></style></defs><path d="M918.46 887.68V533.42c0-26.94-10.96-51.38-28.66-69.06-17.68-17.7-42.12-28.66-69.04-28.66h-38.14C777.6 386.52 735.92 348 685.44 348c-0.02 0-0.06 0.02-0.08 0.02h-87.02a147.964 147.964 0 0 0 20.7-75.66c0-82.18-66.86-149.04-149.04-149.04s-149.04 66.86-149.04 149.04c0 27.62 7.56 53.48 20.7 75.66h-138.24c-0.06 0-0.12-0.02-0.18-0.02-53.84 0-97.66 43.78-97.7 97.6v442.34c0.06 53.82 43.84 97.58 97.66 97.6h617.56c12.82 0 25.28-2.46 36.84-7.18a97.88 97.88 0 0 0 31.4-20.62c18.34-17.9 28.8-41.82 29.44-67.32v-0.22c0-0.04 0.02-0.06 0.02-0.1v-0.7c0-0.52 0.02-1.04 0.02-1.56 0-0.06-0.02-0.1-0.02-0.16zM340.96 272.36c0-71.14 57.88-129.04 129.04-129.04s129.04 57.9 129.04 129.04c0 71.16-57.88 129.06-129.04 129.06s-129.04-57.9-129.04-129.06z m-137.88 95.66h152.74c27.36 32.62 68.38 53.4 114.18 53.4s86.82-20.78 114.18-53.4h101.32c39.42 0.02 72.04 29.58 76.96 67.68H126.2c4.92-38.08 37.5-67.6 76.88-67.68z m695.38 421.46H669.34c-42.86 0-77.72-34.86-77.72-77.72 0-42.84 34.86-77.7 77.72-77.7h229.12v155.42z m0-175.42H669.34c-53.88 0-97.72 43.82-97.72 97.7s43.84 97.72 97.72 97.72h229.12v80.38c-1.08 41.72-35.92 75.68-77.7 75.68H203.24c-42.84 0-77.7-34.86-77.7-77.72V455.7H820.76c42.84 0 77.7 34.86 77.7 77.72v80.64z" fill="#23130D" p-id="3075"></path><path d="M470 143.32c-71.16 0-129.04 57.9-129.04 129.04 0 71.16 57.88 129.06 129.04 129.06s129.04-57.9 129.04-129.06c0-71.14-57.88-129.04-129.04-129.04z m-9.46 119.04h18.9c23.56 0 42.72 19.18 42.72 42.74 0 23.38-18.86 42.42-42.16 42.72v26.8c0 5.52-4.48 10-10 10s-10-4.48-10-10v-26.78h-32.2c-5.52 0-10-4.48-10-10s4.48-10 10-10H479.44c12.52 0 22.72-10.2 22.72-22.74s-10.2-22.74-22.72-22.74h-18.9c-23.56 0-42.74-19.16-42.74-42.72 0-23.38 18.88-42.42 42.2-42.72v-26.8c0-5.54 4.48-10 10-10s10 4.46 10 10v26.76h32.16c5.52 0 10 4.48 10 10 0 5.54-4.48 10-10 10h-51.62c-12.54 0-22.74 10.22-22.74 22.76 0 12.52 10.2 22.72 22.74 22.72z" fill="#F9C139" p-id="3076"></path><path d="M491.84 379.58c-4.34 0-8.62-0.22-12.84-0.62a9.956 9.956 0 0 1-9 5.66c-5.18 0-9.46-3.96-9.94-9.02-55.84-14.18-97.26-64.88-97.26-125.08 0-30 10.3-57.68 27.56-79.62-30.06 23.64-49.4 60.34-49.4 101.46 0 71.16 57.88 129.06 129.04 129.06 41.14 0 77.82-19.34 101.46-49.4-21.94 17.26-49.6 27.56-79.62 27.56z" fill="#23130D" opacity=".2" p-id="3077"></path><path d="M762.46 435.7H126.2c4.92-38.08 37.5-67.6 76.88-67.68h152.74c27.36 32.62 68.38 53.4 114.18 53.4s86.82-20.78 114.18-53.4h101.32c39.42 0.02 72.04 29.58 76.96 67.68z" fill="#3594BF" p-id="3078"></path><path d="M228.74 368.02c-39.38 0.08-71.96 29.6-76.88 67.68H126.2c4.92-38.08 37.5-67.6 76.88-67.68h25.66z" fill="#23130D" opacity=".2" p-id="3079"></path><path d="M669.34 634.06c-42.86 0-77.72 34.86-77.72 77.7 0 42.86 34.86 77.72 77.72 77.72h229.12v-155.42H669.34z m0 131.56c-29.7 0-53.86-24.16-53.86-53.86s24.16-53.86 53.86-53.86c29.68 0 53.84 24.16 53.84 53.86s-24.16 53.86-53.84 53.86z" fill="#3594BF" p-id="3080"></path><path d="M690.02 761.48a53.602 53.602 0 0 1-20.68 4.14c-12.68 0-24.34-4.4-33.52-11.76-22.08-10.58-38.4-31.3-42.94-56.1-0.82 4.54-1.26 9.22-1.26 14 0 42.86 34.86 77.72 77.72 77.72h229.12v-28H690.02z" fill="#23130D" opacity=".2" p-id="3081"></path><path d="M571.62 711.76c0 53.88 43.84 97.72 97.72 97.72h229.12v80.38c-1.08 41.72-35.92 75.68-77.7 75.68H203.24c-42.84 0-77.7-34.86-77.7-77.72V455.7H820.76c42.84 0 77.7 34.86 77.7 77.72v80.64H669.34c-53.88 0-97.72 43.82-97.72 97.7z" fill="#E1E1E5" p-id="3082"></path><path d="M886.7 928.7c-13.82 22.06-38.38 36.84-65.94 36.84H203.24c-42.84 0-77.7-34.86-77.7-77.72V455.7h25v407.12c0 42.86 34.86 77.72 77.7 77.72h617.52c14.94 0 29-4.36 40.94-11.84z" fill="#23130D" opacity=".2" p-id="3083"></path><path d="M669.34 657.9c-29.7 0-53.86 24.16-53.86 53.86s24.16 53.86 53.86 53.86c29.68 0 53.84-24.16 53.84-53.86s-24.16-53.86-53.84-53.86z m0 87.72c-18.68 0-33.86-15.2-33.86-33.86s15.18-33.86 33.86-33.86c18.66 0 33.84 15.2 33.84 33.86s-15.18 33.86-33.84 33.86z" fill="#23130D" p-id="3084"></path><path d="M703.18 711.76c0 18.66-15.18 33.86-33.84 33.86-18.68 0-33.86-15.2-33.86-33.86s15.18-33.86 33.86-33.86c18.66 0 33.84 15.2 33.84 33.86z" fill="#E1E1E5" p-id="3085"></path><path d="M522.16 305.1c0 23.38-18.86 42.42-42.16 42.72v26.8c0 5.52-4.48 10-10 10s-10-4.48-10-10v-26.78h-32.2c-5.52 0-10-4.48-10-10s4.48-10 10-10H479.44c12.52 0 22.72-10.2 22.72-22.74s-10.2-22.74-22.72-22.74h-18.9c-23.56 0-42.74-19.16-42.74-42.72 0-23.38 18.88-42.42 42.2-42.72v-26.8c0-5.54 4.48-10 10-10s10 4.46 10 10v26.76h32.16c5.52 0 10 4.48 10 10 0 5.54-4.48 10-10 10h-51.62c-12.54 0-22.74 10.22-22.74 22.76 0 12.52 10.2 22.72 22.74 22.72h18.9c23.56 0 42.72 19.18 42.72 42.74zM470.006 94.458a10 10 0 0 0 10-10V48.464a10 10 0 0 0-20 0v35.994a10 10 0 0 0 10 10zM367.392 114.63a9.996 9.996 0 0 0 13.662 3.658 10.004 10.004 0 0 0 3.66-13.662l-17.998-31.168a10 10 0 0 0-13.662-3.66 10.004 10.004 0 0 0-3.66 13.662l17.998 31.17zM271.096 169.074l31.176 17.998a9.998 9.998 0 0 0 13.66-3.66 10 10 0 0 0-3.66-13.66l-31.176-17.998a10 10 0 1 0-10 17.32zM632.744 188.414c1.696 0 3.414-0.432 4.988-1.34l31.184-17.998a10 10 0 0 0 3.662-13.66 10 10 0 0 0-13.658-3.662l-31.184 17.998a10 10 0 0 0 5.008 18.662zM558.956 118.29a9.992 9.992 0 0 0 13.66-3.658l18.006-31.17a10 10 0 1 0-17.316-10.004l-18.006 31.17a10 10 0 0 0 3.656 13.662z" fill="#23130D" p-id="3086"></path><path d="M576.61 282.37a10 10 0 0 1-10-10c0-53.282-43.348-96.63-96.628-96.63a10 10 0 0 1 0-20c64.308 0 116.628 52.32 116.628 116.63a10 10 0 0 1-10 10z" fill="#FFFFFF" p-id="3087"></path></svg>
