<?xml version="1.0" standalone="no"?><!DOCTYPE svg PUBLIC "-//W3C//DTD SVG 1.1//EN" "http://www.w3.org/Graphics/SVG/1.1/DTD/svg11.dtd"><svg t="1620205988852" class="icon" viewBox="0 0 1024 1024" version="1.1" xmlns="http://www.w3.org/2000/svg" p-id="3333" xmlns:xlink="http://www.w3.org/1999/xlink" width="200" height="200"><defs><style type="text/css"></style></defs><path d="M858.391273 70.842182l-806.912 181.527273v22.10909h806.912zM631.621818 618.449455c0 55.668364 45.149091 100.817455 100.910546 100.817454h210.385454V517.585455h-210.385454c-55.761455 0-100.957091 45.149091-100.957091 100.864z" fill="#00FFB0" p-id="3334"></path><path d="M51.479273 1004.683636h891.438545c22.341818 0 40.494545-18.152727 40.494546-40.494545V276.340364a40.494545 40.494545 0 0 0-40.494546-40.494546h-43.985454V72.704a40.494545 40.494545 0 0 0-49.431273-39.563636L42.542545 214.714182a40.494545 40.494545 0 0 0-31.604363 39.563636v709.911273c0 22.341818 18.152727 40.494545 40.494545 40.494545z m850.897454-324.096h-169.890909a60.416 60.416 0 0 1-60.369454-60.276363c0-33.28 27.089455-60.322909 60.416-60.322909h169.844363v120.599272z m0-201.634909h-169.890909a141.544727 141.544727 0 0 0-141.405091 141.358546 141.544727 141.544727 0 0 0 141.451637 141.358545h169.844363v161.978182H92.020364V316.881455h810.356363v162.071272z m-84.48-355.607272v112.453818H318.045091l499.851636-112.407273z" fill="#000A64" p-id="3335"></path><path d="M319.627636 410.949818H185.809455a40.494545 40.494545 0 0 0-40.494546 40.494546v334.242909c0 22.341818 18.106182 40.494545 40.494546 40.494545h133.818181c22.341818 0 40.494545-18.152727 40.494546-40.494545V451.490909a40.494545 40.494545 0 0 0-40.494546-40.541091z m-40.494545 334.196364H226.304v-253.207273h52.829091v253.207273z" fill="#000A64" p-id="3336"></path></svg>