<?xml version="1.0" standalone="no"?><!DOCTYPE svg PUBLIC "-//W3C//DTD SVG 1.1//EN" "http://www.w3.org/Graphics/SVG/1.1/DTD/svg11.dtd"><svg t="1620206001812" class="icon" viewBox="0 0 1024 1024" version="1.1" xmlns="http://www.w3.org/2000/svg" p-id="3471" xmlns:xlink="http://www.w3.org/1999/xlink" width="200" height="200"><defs><style type="text/css"></style></defs><path d="M884.9 159.4H203.2c-41.6 0-75.5 33-75.5 73.6v115.6H64.2v326.3h63.5v115.6c0 40.6 33.9 73.6 75.5 73.6h681.7c41.6 0 75.5-33 75.5-73.6V233.1c0-40.6-33.9-73.7-75.5-73.7zM115.4 623.8v-224h197.3c61.7 0 112 50.2 112 112s-50.2 112-112 112H115.4z m792.8 166.7c0 11.6-10.7 21.5-23.3 21.5H203.2c-12.6 0-23.3-9.8-23.3-21.5V674.9h132.8c90 0 163.1-73.2 163.1-163.1s-73.2-163.1-163.1-163.1H179.9V233.1c0-11.6 10.7-21.5 23.3-21.5h681.7c12.6 0 23.3 9.8 23.3 21.5v557.4z" fill="#24BC77" p-id="3472"></path><path d="M361.2 511.8c0-16.3-13.2-29.6-29.6-29.6-16.3 0-29.6 13.2-29.6 29.6 0 16.3 13.2 29.6 29.6 29.6 16.3 0 29.6-13.3 29.6-29.6zM556.8 673.3h273.5v51.2H556.8z" fill="#24BC77" p-id="3473"></path></svg>