<?xml version="1.0" standalone="no"?><!DOCTYPE svg PUBLIC "-//W3C//DTD SVG 1.1//EN" "http://www.w3.org/Graphics/SVG/1.1/DTD/svg11.dtd"><svg t="1620206054122" class="icon" viewBox="0 0 1024 1024" version="1.1" xmlns="http://www.w3.org/2000/svg" p-id="7281" xmlns:xlink="http://www.w3.org/1999/xlink" width="200" height="200"><defs><style type="text/css"></style></defs><path d="M914.048 110.1312C830.1568 22.1696 670.976 2.2528 512 0 353.024 2.048 193.8432 21.9392 109.952 109.9264 21.9648 193.9968 2.048 352.9472 0 512.1024v6.0416c2.4576 156.9024 22.9888 313.1904 109.952 396.032C193.8432 1002.0608 353.024 1021.952 512 1024c158.976-2.048 318.1568-21.9392 402.048-109.9264C1001.0112 831.232 1021.3376 675.1488 1024 518.144v-5.9392c-2.048-159.232-21.9648-318.208-109.952-402.0736z" fill="#FF6661" p-id="7282"></path><path d="M726.6048 703.6672a43.776 43.776 0 0 0 9.3184-14.4128c2.176-5.4528 3.2768-11.3152 3.2768-17.5872v-90.368h-114.4064c-11.776 0-20.736-2.304-26.9568-6.9376a42.3424 42.3424 0 0 1-13.3632-15.4112 54.4512 54.4512 0 0 1-5.5552-22.8352c0-12.5696 4.4544-23.168 13.3632-31.7696a45.0304 45.0304 0 0 1 32.512-12.928h114.4064V423.936a43.264 43.264 0 0 0-13.3632-32.0256 44.5952 44.5952 0 0 0-32.512-13.1584H327.4496c-12.7488 0-23.6032 4.3776-32.512 13.1584a43.264 43.264 0 0 0-13.3376 32v247.7568c0 6.272 1.28 12.16 3.7632 17.6128 2.5344 5.4784 5.9648 10.2656 10.3424 14.4128a48.4608 48.4608 0 0 0 33.28 13.1328h365.8496a43.3408 43.3408 0 0 0 31.744-13.1584z m-117.9392-183.4496a21.4272 21.4272 0 0 0-6.5536 15.872 22.272 22.272 0 0 0 6.5536 16.1536c4.352 4.48 9.728 6.7072 16.128 6.7072s11.776-2.2272 16.128-6.7072a22.272 22.272 0 0 0 6.528-16.128 21.4272 21.4272 0 0 0-6.528-15.872 22.0672 22.0672 0 0 0-16.128-6.4768c-6.4 0-11.776 2.1504-16.128 6.4512z" fill="#FFFFFF" p-id="7283"></path><path d="M670.6432 355.8912H441.856a3181.056 3181.056 0 0 0 51.4048-26.8032c14.1312-7.296 28.0576-14.592 41.8304-21.8624 13.7728-7.2704 24.5248-12.9024 32.256-16.896 11.776-6.272 22.272-9.1648 31.488-8.6784 9.2416 0.512 17.0496 2.0736 23.4496 4.7104 7.3728 3.6608 13.7728 8.448 19.1488 14.4128l29.2096 55.1168z" fill="#FFFFFF" opacity=".602" p-id="7284"></path></svg>