<?xml version="1.0" standalone="no"?><!DOCTYPE svg PUBLIC "-//W3C//DTD SVG 1.1//EN" "http://www.w3.org/Graphics/SVG/1.1/DTD/svg11.dtd"><svg t="1620206062717" class="icon" viewBox="0 0 1026 1024" version="1.1" xmlns="http://www.w3.org/2000/svg" p-id="7415" xmlns:xlink="http://www.w3.org/1999/xlink" width="200.390625" height="200"><defs><style type="text/css"></style></defs><path d="M514.56 512m-512 0a512 512 0 1 0 1024 0 512 512 0 1 0-1024 0Z" fill="#FFBD09" p-id="7416"></path><path d="M660.48 399.36c-7.68-5.12-17.92-10.24-25.6-12.8l5.12-5.12c15.36-15.36 28.16-30.72 35.84-51.2 2.56-10.24 5.12-12.8 7.68-23.04 5.12-28.16 0-46.08-17.92-58.88-23.04-17.92-48.64-20.48-76.8-10.24-2.56 0-2.56 2.56-5.12 0-35.84-33.28-92.16-33.28-128 0-2.56 2.56-2.56 2.56-5.12 0-15.36-7.68-30.72-7.68-46.08-5.12-28.16 5.12-53.76 30.72-48.64 64 2.56 28.16 15.36 53.76 35.84 76.8l12.8 12.8s-2.56 0-2.56 2.56c-99.84 46.08-168.96 143.36-176.64 256-2.56 30.72-2.56 58.88 7.68 92.16 15.36 46.08 56.32 84.48 107.52 84.48h363.52c38.4 0 69.12-17.92 89.6-48.64 10.24-15.36 23.04-46.08 23.04-76.8 0-33.28 0-71.68-10.24-104.96-23.04-87.04-71.68-148.48-145.92-192z m122.88 294.4c-2.56 17.92-5.12 35.84-15.36 48.64-17.92 28.16-56.32 43.52-89.6 43.52H358.4c-46.08 0-87.04-25.6-99.84-69.12-7.68-28.16-5.12-61.44-5.12-89.6 7.68-102.4 99.84-199.68 189.44-240.64 0 0-25.6-23.04-28.16-28.16-17.92-20.48-28.16-35.84-30.72-61.44-5.12-33.28 20.48-40.96 35.84-46.08 12.8-2.56 43.52 12.8 43.52 10.24 30.72-30.72 81.92-28.16 112.64 0 2.56 2.56 2.56 0 5.12 0 23.04-10.24 43.52-15.36 64 0 15.36 12.8 15.36 23.04 12.8 43.52-2.56 7.68-15.36 30.72-20.48 38.4-20.48 25.6-38.4 43.52-40.96 43.52 0 0 40.96 20.48 48.64 25.6 64 48.64 107.52 87.04 128 161.28 7.68 43.52 17.92 81.92 10.24 120.32z" fill="#FFFFFF" p-id="7417"></path><path d="M476.16 491.52h-51.2l66.56 112.64h-58.88v30.72h64v23.04h-64v25.6h64v51.2h48.64v-51.2h66.56v-25.6h-66.56v-23.04h66.56v-28.16h-58.88l64-112.64h-51.2L524.8 588.8l-48.64-97.28z" fill="#FFFFFF" p-id="7418"></path></svg>