<?xml version="1.0" standalone="no"?><!DOCTYPE svg PUBLIC "-//W3C//DTD SVG 1.1//EN" "http://www.w3.org/Graphics/SVG/1.1/DTD/svg11.dtd"><svg t="1614417970457" class="icon" viewBox="0 0 1024 1024" version="1.1" xmlns="http://www.w3.org/2000/svg" p-id="48460" xmlns:xlink="http://www.w3.org/1999/xlink" width="128" height="128"><defs><style type="text/css"></style></defs><path d="M874.016598 149.975364a511.985024 511.985024 0 1 0 0 724.049221 511.985024 511.985024 0 0 0 0-724.049221zM439.750901 782.020876l-197.779815-197.779815a102.089814 102.089814 0 0 1 0-144.482174l197.779815-197.779814a102.089814 102.089814 0 0 1 144.482174 0l197.779815 197.779814a102.089814 102.089814 0 0 1 0 144.482174l-197.779815 197.779815a102.089814 102.089814 0 0 1-144.482174 0z" fill="#D82E2E" p-id="48461"></path><path d="M606.299629 558.846604h-70.705132v-35.378165h70.705132a23.60251 23.60251 0 1 0 0-47.153821h-53.758427L604.149292 421.481022a23.551311 23.551311 0 1 0-34.302997-32.306255L511.991988 450.561771 453.932886 389.123569A23.551311 23.551311 0 1 0 419.834683 421.481022L471.442774 476.161023h-53.758428a23.60251 23.60251 0 1 0 0 47.15382h70.705132v35.378166H417.684346a23.60251 23.60251 0 1 0 0 47.15382h70.705132V650.235931a23.60251 23.60251 0 0 0 47.205019 0v-44.337903h70.705132a23.60251 23.60251 0 1 0 0-47.153821z" fill="#D82E2E" p-id="48462"></path></svg>