<?xml version="1.0" standalone="no"?><!DOCTYPE svg PUBLIC "-//W3C//DTD SVG 1.1//EN" "http://www.w3.org/Graphics/SVG/1.1/DTD/svg11.dtd"><svg t="1620206078834" class="icon" viewBox="0 0 1024 1024" version="1.1" xmlns="http://www.w3.org/2000/svg" p-id="8402" xmlns:xlink="http://www.w3.org/1999/xlink" width="200" height="200"><defs><style type="text/css"></style></defs><path d="M0 0m512 0l0 0q512 0 512 512l0 0q0 512-512 512l0 0q-512 0-512-512l0 0q0-512 512-512Z" fill="#EEF4FF" p-id="8403"></path><path d="M298.666667 305.777778a49.777778 49.777778 0 0 0-49.777778 49.777778v312.888888c0 27.477333 22.300444 49.777778 49.777778 49.777778H711.111111a49.777778 49.777778 0 0 0 49.777778-49.777778v-64H583.111111a92.444444 92.444444 0 0 1 0-184.888888h177.777778V355.555556A49.777778 49.777778 0 0 0 711.111111 305.777778H298.666667z" fill="#004EE4" p-id="8404"></path><path d="M789.333333 476.444444a14.222222 14.222222 0 0 0-14.222222-14.222222H583.111111a49.777778 49.777778 0 1 0 0 99.555556h192a14.222222 14.222222 0 0 0 14.222222-14.222222v-71.111112z" fill="#004EE4" p-id="8405"></path></svg>