<?xml version="1.0" standalone="no"?><!DOCTYPE svg PUBLIC "-//W3C//DTD SVG 1.1//EN" "http://www.w3.org/Graphics/SVG/1.1/DTD/svg11.dtd"><svg t="1620206096944" class="icon" viewBox="0 0 1024 1024" version="1.1" xmlns="http://www.w3.org/2000/svg" p-id="9499" xmlns:xlink="http://www.w3.org/1999/xlink" width="200" height="200"><defs><style type="text/css"></style></defs><path d="M512 512m-512 0a512 512 0 1 0 1024 0 512 512 0 1 0-1024 0Z" fill="#91E4DF" p-id="9500"></path><path d="M358.4 384v-97.4208L716.8 384v320H294.4V384h64z m25.6384 0H611.84l-227.7888-62.7456L384.0384 384z m306.368 25.6H320v268.8h371.2v-38.4h-0.1152l-0.6784-230.4zM409.6 576a38.4 38.4 0 1 1 0-76.8 38.4 38.4 0 0 1 0 76.8z m0-25.6a12.8 12.8 0 1 0 0-25.6 12.8 12.8 0 0 0 0 25.6z" fill="#FFFFFF" p-id="9501"></path></svg>