<?xml version="1.0" standalone="no"?><!DOCTYPE svg PUBLIC "-//W3C//DTD SVG 1.1//EN" "http://www.w3.org/Graphics/SVG/1.1/DTD/svg11.dtd"><svg t="1620206106737" class="icon" viewBox="0 0 1024 1024" version="1.1" xmlns="http://www.w3.org/2000/svg" p-id="10417" xmlns:xlink="http://www.w3.org/1999/xlink" width="200" height="200"><defs><style type="text/css"></style></defs><path d="M512 512m-512 0a512 512 0 1 0 1024 0 512 512 0 1 0-1024 0Z" fill="#B7EB81" p-id="10418"></path><path d="M245.76 358.3488c0-22.58944 17.67424-45.84448 39.46496-51.9168l341.7088-95.36512c32.6656-9.1136 59.14624 11.01824 59.14624 44.99456v409.46688A41.02144 41.02144 0 0 1 645.04832 706.56H286.79168A40.92928 40.92928 0 0 1 245.76 665.6512v-307.3024z" fill="#00BB74" p-id="10419"></path><path d="M245.76 348.16h491.58144A40.8576 40.8576 0 0 1 778.24 389.0688v307.3024A40.91904 40.91904 0 0 1 737.34144 737.28H286.65856A40.8576 40.8576 0 0 1 245.76 696.3712V348.16z" fill="#FFFFFF" p-id="10420"></path><path d="M573.44 542.72c0-39.58784 32.04096-71.68 71.58784-71.68H778.3424c11.264 0 20.38784 9.18528 20.38784 20.54144v102.27712C798.72 605.20448 789.6064 614.4 778.33216 614.4H645.0176C605.50144 614.4 573.44 582.22592 573.44 542.72z m71.68 30.72a30.72 30.72 0 1 0 0-61.44 30.72 30.72 0 0 0 0 61.44z" fill="#00BB74" p-id="10421"></path></svg>