<?xml version="1.0" standalone="no"?><!DOCTYPE svg PUBLIC "-//W3C//DTD SVG 1.1//EN" "http://www.w3.org/Graphics/SVG/1.1/DTD/svg11.dtd"><svg t="1620206133746" class="icon" viewBox="0 0 1024 1024" version="1.1" xmlns="http://www.w3.org/2000/svg" p-id="12992" xmlns:xlink="http://www.w3.org/1999/xlink" width="200" height="200"><defs><style type="text/css"></style></defs><path d="M69.12 969.728c-38.4 0-69.12-31.232-69.12-69.12V244.224c0-29.696 18.944-55.808 46.592-65.536L696.832 3.584C704 1.024 711.68 0 719.36 0c38.4 0 69.12 31.232 69.12 69.12v610.304c0 29.696-18.944 55.808-46.592 65.536L91.648 966.144c-7.68 2.048-15.36 3.584-22.528 3.584zM719.36 38.912c-3.072 0-6.656 0.512-9.728 1.536L59.392 215.552c-12.288 4.096-20.48 15.872-20.48 28.672v656.384c0 19.968 20.48 35.328 39.936 28.672l650.24-221.184c12.288-4.096 20.48-15.872 20.48-28.672V69.12c0-16.896-13.312-30.208-30.208-30.208z" fill="#F8A10B" p-id="12993"></path><path d="M986.112 956.928H37.888a18.355 18.355 0 0 1-18.432-18.432v-724.48a18.355 18.355 0 0 1 18.432-18.432H985.6a18.355 18.355 0 0 1 18.432 18.432v724.48c0.512 10.24-7.68 18.432-17.92 18.432z" fill="#FFE39B" p-id="12994"></path><path d="M948.224 976.384H75.776C33.792 976.384 0 942.592 0 900.608V251.904c0-41.984 33.792-75.776 75.776-75.776h872.448c41.984 0 75.776 33.792 75.776 75.776v648.704c0 41.984-33.792 75.776-75.776 75.776zM75.776 215.04c-20.48 0-36.864 16.384-36.864 36.864v648.704c0 20.48 16.384 36.864 36.864 36.864h872.448c20.48 0 36.864-16.384 36.864-36.864V251.904c0-20.48-16.384-36.864-36.864-36.864H75.776z" fill="#F1920D" p-id="12995"></path><path d="M713.728 349.696h-82.944L512 524.288 393.728 349.696h-82.944l133.632 197.12H342.528v56.832h130.048v58.368H342.528v55.296h130.048v106.496h78.336V717.312h131.072v-55.296H550.912v-58.368h131.072v-56.832h-102.4z" fill="#F1920D" p-id="12996"></path></svg>