<?xml version="1.0" standalone="no"?><!DOCTYPE svg PUBLIC "-//W3C//DTD SVG 1.1//EN" "http://www.w3.org/Graphics/SVG/1.1/DTD/svg11.dtd"><svg t="1614475977288" class="icon" viewBox="0 0 1024 1024" version="1.1" xmlns="http://www.w3.org/2000/svg" p-id="48754" xmlns:xlink="http://www.w3.org/1999/xlink" width="128" height="128"><defs><style type="text/css"></style></defs><path d="M1020.113013 490.728818v-182.486716c0-25.528142-20.87848-46.406622-46.406622-46.406622H50.393602c-25.528142 0-46.406622 20.87848-46.406622 46.406622v669.281281c0 25.528142 20.87848 46.406622 46.406622 46.406622h923.322788c25.528142 0 46.406622-20.888479 46.406622-46.406622v-182.486716c-4.369682 0.379972-8.589375 1.329903-13.04905 1.329903H790.169751c-75.754486 0-146.569331-50.506323-160.17834-125.030899-17.668714-96.772956 57.14584-181.936756 150.879017-181.936756h226.193535c4.469675 0 8.679368 0.949931 13.04905 1.329903zM288.126296 209.289305h425.379036c13.019052 0 21.048468-14.218965 14.318958-25.368153l-96.492976-159.968356C617.23234 0.574498 586.574571-7.00495 563.196273 7.094024L279.486925 178.241565c-14.508944 8.749363-8.309395 31.04774 8.639371 31.04774z" fill="#FFB933" p-id="48755"></path><path d="M799.349083 642.877743m-84.673836 0a84.673836 84.673836 0 1 0 169.347672 0 84.673836 84.673836 0 1 0-169.347672 0Z" fill="#FFB933" p-id="48756"></path></svg>