<?xml version="1.0" standalone="no"?><!DOCTYPE svg PUBLIC "-//W3C//DTD SVG 1.1//EN" "http://www.w3.org/Graphics/SVG/1.1/DTD/svg11.dtd"><svg t="1614417965055" class="icon" viewBox="0 0 1239 1024" version="1.1" xmlns="http://www.w3.org/2000/svg" p-id="48317" xmlns:xlink="http://www.w3.org/1999/xlink" width="154.875" height="128"><defs><style type="text/css"></style></defs><path d="M102.252731 0h971.400939a102.252731 102.252731 0 0 1 102.252731 102.252731v204.505461H0V102.252731a102.252731 102.252731 0 0 1 102.252731-102.252731z" fill="#FFA800" p-id="48318"></path><path d="M102.252731 178.942278h971.400939a102.252731 102.252731 0 0 1 102.252731 102.252731v204.505461H0v-204.505461a102.252731 102.252731 0 0 1 102.252731-102.252731z" fill="#282F45" p-id="48319"></path><path d="M0 357.884557m102.252731 0l971.400939 0q102.252731 0 102.252731 102.25273l0 409.010922q0 102.252731-102.252731 102.252731l-971.400939 0q-102.252731 0-102.252731-102.252731l0-409.010922q0-102.252731 102.252731-102.25273Z" fill="#1ABB9C" p-id="48320"></path></svg>