<?xml version="1.0" standalone="no"?><!DOCTYPE svg PUBLIC "-//W3C//DTD SVG 1.1//EN" "http://www.w3.org/Graphics/SVG/1.1/DTD/svg11.dtd"><svg t="1614476135522" class="icon" viewBox="0 0 1024 1024" version="1.1" xmlns="http://www.w3.org/2000/svg" p-id="52793" xmlns:xlink="http://www.w3.org/1999/xlink" width="128" height="128"><defs><style type="text/css"></style></defs><path d="M819.776 63.104l39.232 107.904h-522.88L737.664 24.96a64 64 0 0 1 82.048 38.208z" fill="#F5BD25" p-id="52794"></path><path d="M0 235.008m64 0l832 0q64 0 64 64l0 640q0 64-64 64l-832 0q-64 0-64-64l0-640q0-64 64-64Z" fill="#F5BD25" p-id="52795"></path><path d="M652.8 459.008H1024v345.6h-371.2a172.8 172.8 0 0 1 0-345.6z" fill="#FA7D00" p-id="52796"></path><path d="M659.328 631.808m-64 0a64 64 0 1 0 128 0 64 64 0 1 0-128 0Z" fill="#F9FBFC" p-id="52797"></path></svg>