<?xml version="1.0" standalone="no"?><!DOCTYPE svg PUBLIC "-//W3C//DTD SVG 1.1//EN" "http://www.w3.org/Graphics/SVG/1.1/DTD/svg11.dtd"><svg t="1614476399941" class="icon" viewBox="0 0 1024 1024" version="1.1" xmlns="http://www.w3.org/2000/svg" p-id="53981" xmlns:xlink="http://www.w3.org/1999/xlink" width="128" height="128"><defs><style type="text/css"></style></defs><path d="M589.714286 503.428571a86.285714 86.285714 0 1 0 86.285714 86.285715 86.857143 86.857143 0 0 0-86.285714-86.285715z m0 114.285715a30.285714 30.285714 0 1 1 30.285714-30.285715 30.285714 30.285714 0 0 1-30.285714 32.571429z" fill="#99A8BF" p-id="53982"></path><path d="M1024 290.285714a162.857143 162.857143 0 0 0-159.428571-154.285714h-152.571429A164 164 0 0 0 554.285714 0H161.142857A164 164 0 0 0 0 154.857143v714.857143a163.428571 163.428571 0 0 0 159.428571 154.285714h705.142858a163.428571 163.428571 0 0 0 159.428571-154.285714V290.285714zM163.428571 56h387.428572a107.428571 107.428571 0 0 1 104 80H59.428571A107.428571 107.428571 0 0 1 163.428571 56z m805.142858 669.142857a10.857143 10.857143 0 0 1-10.857143 10.857143H550.857143A107.428571 107.428571 0 0 1 443.428571 628.571429V550.857143a107.428571 107.428571 0 0 1 107.428572-107.428572h406.857143a10.857143 10.857143 0 0 1 10.857143 10.857143z m0-337.714286H542.857143A165.142857 165.142857 0 0 0 387.428571 542.857143v94.285714a163.428571 163.428571 0 0 0 153.714286 154.857143h426.857143v69.142857a108 108 0 0 1-108 107.428572H163.428571a107.428571 107.428571 0 0 1-107.428571-107.428572V202.285714a10.857143 10.857143 0 0 1 8.571429-10.857143h796a108 108 0 0 1 108 108z" fill="#99A8BF" p-id="53983"></path></svg>