<?xml version="1.0" standalone="no"?><!DOCTYPE svg PUBLIC "-//W3C//DTD SVG 1.1//EN" "http://www.w3.org/Graphics/SVG/1.1/DTD/svg11.dtd"><svg t="1614417793478" class="icon" viewBox="0 0 1024 1024" version="1.1" xmlns="http://www.w3.org/2000/svg" p-id="30121" xmlns:xlink="http://www.w3.org/1999/xlink" width="128" height="128"><defs><style type="text/css"></style></defs><path d="M182.833241 169.329208h576.289084c37.437582 0 67.79697 34.825087 67.79697 77.780326v155.559627h-711.890187v-155.559627c-0.001023-42.955238 30.356318-77.780325 67.804133-77.780326z" fill="#2E2D3A" p-id="30122"></path><path d="M836.597706 410.633537h-727.825079l-1.709942-163.524003c0-47.281768 33.992117-85.747772 75.77158-85.747772h578.000048c41.777415 0 75.764416 38.466003 75.764416 85.747772v163.524003z m-713.604222-15.932845h697.670353v-147.591158c0-38.497726-26.841268-69.814926-59.831571-69.814926h-578.000048c-32.994396 0-59.838734 31.3172-59.838734 69.814926v147.591158z" fill="#5C50D4" p-id="30123"></path><path d="M164.869137 303.718719l463.466731-176.062549 80.096062 300.818675-433.479825 256.635472-110.082968-381.391598z" fill="#FF7E7E" p-id="30124"></path><path d="M759.121302 752.259536h135.59701v38.886581c0 53.698909-37.947188 97.232314-84.754144 97.232314h-610.186033c-46.804909 0-84.75005-43.533405-84.75005-97.232314 0 0 2.231826-506.459831 2.231826-563.90301 2.467186 14.621993 26.507671 38.895791 48.62025 38.895791H809.964168c46.806955 0 84.754143 43.530335 84.754144 97.230267v77.772139h-135.59701c-74.894608 0-135.60315 69.648127-135.60315 155.556557 0 85.91457 60.708542 155.561674 135.60315 155.561675z" fill="#6E5FFF" p-id="30125"></path><path d="M809.964168 896.34383h-610.186033c-51.123252 0-92.716473-47.191718-92.716473-105.197713 0.023536-5.100148 2.231826-507.133165 2.231826-563.90301l15.824376-1.325179c1.744734 10.345605 22.152488 32.2525 40.762297 32.2525h644.084007c51.126322 0 92.718519 47.191718 92.71852 105.198737v85.738562h-143.561386c-70.37979 0-127.63775 66.209825-127.637751 147.590134 0 81.386449 57.257961 147.595251 127.637751 147.595252h143.561386v46.853004c0 58.005996-41.592197 105.197714-92.71852 105.197713z m-693.807379-644.186337c-0.342807 120.04074 6.857161 534.435944 6.837719 539.025463 0 49.185114 34.445441 89.227006 76.783627 89.227005h610.186033c42.339209 0 76.786697-40.041892 76.786697-89.263844v-30.919135H759.122325c-79.164856 0-143.569573-73.357605-143.569573-163.528097 0-90.165376 64.404717-163.524004 143.569573-163.524004h127.62854v-69.804693c0-49.219906-34.447488-89.264868-76.786697-89.264868h-644.084007c-14.832794-0.001023-38.867138-11.130479-49.723372-21.947827z" fill="#5C50D4" p-id="30126"></path><path d="M764.394388 460.754975c-65.525235 0-118.649047 60.934692-118.649047 136.108662 0 75.172946 53.123812 136.115825 118.649047 136.115825h152.542927v-272.224487h-152.542927z m17.143414 151.26482c0 13.19653-10.698645 23.900292-23.900292 23.900291h-19.920661c-13.201647 0-23.900292-10.704785-23.900292-23.900291v-30.372691c0-13.203693 10.698645-23.901315 23.900292-23.901315h19.920661c13.201647 0 23.900292 10.697622 23.900292 23.901315v30.372691z" fill="#6E5FFF" p-id="30127"></path></svg>