<?xml version="1.0" standalone="no"?><!DOCTYPE svg PUBLIC "-//W3C//DTD SVG 1.1//EN" "http://www.w3.org/Graphics/SVG/1.1/DTD/svg11.dtd"><svg t="1614417808503" class="icon" viewBox="0 0 1024 1024" version="1.1" xmlns="http://www.w3.org/2000/svg" p-id="31233" xmlns:xlink="http://www.w3.org/1999/xlink" width="128" height="128"><defs><style type="text/css"></style></defs><path d="M874.666667 533.333333m-64 0a64 64 0 1 0 128 0 64 64 0 1 0-128 0Z" fill="#000000" opacity=".3" p-id="31234"></path><path d="M102.434172 232.474923m41.212835-11.042946l659.405364-176.687134q41.212835-11.042946 52.255781 30.169889l55.21473 206.064176q11.042946 41.212835-30.169889 52.255781l-659.405364 176.687135q-41.212835 11.042946-52.255781-30.169889l-55.21473-206.064176q-11.042946-41.212835 30.169889-52.255782Z" fill="#000000" opacity=".3" p-id="31235"></path><path d="M938.666667 398.378667a149.333333 149.333333 0 1 0 0 269.909333V768a85.333333 85.333333 0 0 1-85.333334 85.333333H170.666667a85.333333 85.333333 0 0 1-85.333334-85.333333V256a85.333333 85.333333 0 0 1 85.333334-85.333333h682.666666a85.333333 85.333333 0 0 1 85.333334 85.333333v142.378667z" fill="#000000" p-id="31236"></path></svg>