<?xml version="1.0" standalone="no"?><!DOCTYPE svg PUBLIC "-//W3C//DTD SVG 1.1//EN" "http://www.w3.org/Graphics/SVG/1.1/DTD/svg11.dtd"><svg t="1614417843026" class="icon" viewBox="0 0 1024 1024" version="1.1" xmlns="http://www.w3.org/2000/svg" p-id="34146" xmlns:xlink="http://www.w3.org/1999/xlink" width="128" height="128"><defs><style type="text/css"></style></defs><path d="M460.86144 14.0288c-5.29408 2.54976-11.56096 10.38336-26.25536 32.7168-67.20512 101.48864-79.34976 120.68864-76.99456 121.47712 78.17216 26.44992 556.61568 184.95488 557.0048 184.55552 0.98304-0.98304-421.632-334.63296-429.07648-338.944-7.6288-4.31104-15.86176-4.31104-24.6784 0.19456zM220.85632 233.65632c-13.12768 8.02816-14.11072 10.38336-34.28352 82.67776-10.57792 38.20544-19.00544 69.55008-18.81088 69.74464 0.38912 0.38912 168.69376 0.38912 374.016 0.19456l373.62688-0.58368-201.41056-46.63296c-110.6944-25.46688-261.94944-60.53888-336.40448-77.78304-74.25024-17.24416-138.71104-31.34464-143.02208-31.34464-4.31104 0.01024-10.38336 1.57696-13.71136 3.72736z" fill="#108CEE" p-id="34147"></path><path d="M83.32288 264.02816C49.23392 272.45568 19.456 303.01184 12.40064 337.3056c-1.56672 7.24992-2.1504 96.98304-2.1504 301.7216 0 246.272 0.38912 292.90496 2.93888 301.91616 9.20576 35.072 38.78912 63.2832 73.472 70.72768 8.02816 1.56672 119.51104 1.95584 431.03232 1.56672l420.25984-0.58368 11.3664-4.31104c17.0496-6.46144 35.072-20.3776 45.45536-34.87744 13.71136-19.2 17.24416-30.76096 18.21696-60.14976l0.78848-25.07776-165.35552-0.38912-165.16096-0.58368-12.3392-6.66624c-13.71136-7.44448-19.58912-13.5168-27.43296-28.40576l-5.29408-9.99424v-221.3888l4.89472-9.79968c6.07232-12.53376 17.82784-24.28928 30.37184-30.37184l9.79968-4.89472 165.16096-0.58368 164.9664-0.38912V449.37216h-902.2464l-9.79968-4.70016c-11.75552-5.48864-19.00544-12.93312-24.29952-24.68864-5.87776-12.93312-5.87776-53.67808 0-66.6112 8.42752-18.81088 25.07776-29.3888 46.2336-29.3888h12.14464l1.95584-7.44448c0.98304-3.92192 4.31104-16.45568 7.05536-27.82208 2.74432-11.3664 5.48864-22.13888 6.07232-24.09472 0.98304-3.13344-1.1776-3.328-28.01664-3.13344-15.85152-0.01024-33.4848 1.16736-39.168 2.53952zM860.54912 263.8336c1.56672 1.56672 29.58336 22.72256 62.1056 47.21664L982.016 355.328h31.744l-0.78848-23.12192c-0.58368-19.2-1.56672-24.29952-5.29408-31.744-6.07232-11.95008-20.57216-26.64448-32.52224-32.91136l-9.79968-5.29408-53.88288-0.58368c-46.61248-0.58368-53.47328-0.19456-50.92352 2.16064z" fill="#108CEE" p-id="34148"></path><path d="M702.23872 639.80544c-2.93888 2.93888-3.328 181.03296-0.38912 185.73312 1.56672 2.54976 21.5552 2.93888 156.73344 3.52256l154.7776 0.38912V641.36192H861.53216c-99.92192 0-151.83872-0.58368-151.83872-1.95584-0.01024-2.73408-4.51584-2.53952-7.45472 0.39936z m109.32224 48.78336c11.75552 5.28384 19.2 12.53376 24.68864 24.28928 8.0384 16.85504 4.70016 36.44416-8.62208 50.7392-7.44448 7.8336-23.12192 14.88896-33.69984 14.88896-10.57792 0-26.25536-7.05536-33.69984-14.88896-22.33344-23.90016-14.88896-60.34432 15.08352-74.45504 12.15488-5.66272 24.50432-5.85728 36.2496-0.57344z" fill="#108CEE" p-id="34149"></path></svg>