<?xml version="1.0" standalone="no"?><!DOCTYPE svg PUBLIC "-//W3C//DTD SVG 1.1//EN" "http://www.w3.org/Graphics/SVG/1.1/DTD/svg11.dtd"><svg t="1614417856558" class="icon" viewBox="0 0 1024 1024" version="1.1" xmlns="http://www.w3.org/2000/svg" p-id="34289" xmlns:xlink="http://www.w3.org/1999/xlink" width="128" height="128"><defs><style type="text/css"></style></defs><path d="M512 0c282.76736 0 512 229.23264 512 512s-229.23264 512-512 512S0 794.76736 0 512 229.23264 0 512 0z" fill="#EFC75E" p-id="34290"></path><path d="M266.24 276.48h471.04a51.2 51.2 0 0 1 51.2 51.2v61.44a51.2 51.2 0 0 1-51.2 51.2H266.24a51.2 51.2 0 0 1-51.2-51.2v-61.44a51.2 51.2 0 0 1 51.2-51.2z" fill="#A86A3F" p-id="34291"></path><path d="M737.28 276.48H266.24a51.2 51.2 0 0 0-51.2 51.2v20.48a51.2 51.2 0 0 1 51.2-51.2h471.04a51.2 51.2 0 0 1 51.2 51.2v-20.48a51.2 51.2 0 0 0-51.2-51.2z" fill="#975F39" p-id="34292"></path><path d="M368.26112 321.19808l320.53248-84.992a20.61312 20.61312 0 0 1 25.21088 14.39744l53.27872 196.73088a20.35712 20.35712 0 0 1-14.56128 24.94464L335.2064 582.99392a20.61312 20.61312 0 0 1-25.21088-14.39744l-39.13728-144.51712 97.40288-102.88128z" fill="#3DB39E" p-id="34293"></path><path d="M711.23968 441.01632l-69.24288 18.55488a10.24 10.24 0 0 1-5.30432-19.78368l59.35104-15.90272-31.7952-118.69184-59.35104 15.90272a10.24 10.24 0 0 1-5.30432-19.78368l69.24288-18.55488a10.24 10.24 0 0 1 12.544 7.23968l37.09952 138.46528a10.24 10.24 0 0 1-7.23968 12.55424z m-286.84288 76.86144l-69.24288 18.55488a10.25024 10.25024 0 0 1-12.544-7.23968l-37.09952-138.47552a10.24 10.24 0 0 1 7.23968-12.544l69.24288-18.55488a10.24 10.24 0 0 1 5.30432 19.79392l-59.35104 15.90272 31.7952 118.69184 59.35104-15.90272a10.24 10.24 0 0 1 5.30432 19.77344z" fill="#78CABB" p-id="34294"></path><path d="M218.03008 390.4c91.22816-52.34688 337.94048-194.03776 337.94048-194.03776a20.61312 20.61312 0 0 1 28.07808 7.38304l102.37952 176.24064c5.65248 9.73824 2.2528 22.21056-7.60832 27.86304L304.18944 622.83776a20.60288 20.60288 0 0 1-28.07808-7.38304s-29.32736-60.3648-58.08128-109.86496V390.4z" fill="#5ABEAC" p-id="34295"></path><path d="M363.25376 519.12704l-53.20704 30.72-61.44-106.42432 53.20704-30.72a10.24 10.24 0 0 0-10.24-17.73568l-62.07488 35.84a10.21952 10.21952 0 0 0-3.7376 13.9776l71.68 124.16a10.19904 10.19904 0 0 0 13.9776 3.7376l62.07488-35.84a10.24 10.24 0 0 0-10.24-17.7152z m271.1552-144.73216l-71.68-124.16a10.24 10.24 0 0 0-13.9776-3.74784l-62.07488 35.84a10.24 10.24 0 0 0 10.24 17.73568l53.20704-30.72 61.44 106.42432-53.20704 30.72a10.24 10.24 0 0 0 10.24 17.73568l62.07488-35.84a10.24 10.24 0 0 0 3.7376-13.98784zM389.12 338.65728A81.92 81.92 0 0 0 359.13728 450.56 81.92 81.92 0 0 0 471.04 480.54272a81.92 81.92 0 0 0-81.92-141.88544z" fill="#8CD2C5" p-id="34296"></path><path d="M757.76 368.64H256a40.96 40.96 0 0 1-40.96-40.96v368.64a51.2 51.2 0 0 0 51.2 51.2h491.52a51.2 51.2 0 0 0 51.2-51.2V419.84a51.2 51.2 0 0 0-51.2-51.2z" fill="#C47E4D" p-id="34297"></path><path d="M808.96 634.88h-81.92a71.68 71.68 0 1 1 0-143.36h81.92a20.48 20.48 0 0 1 20.48 20.48v102.4a20.48 20.48 0 0 1-20.48 20.48z" fill="#A86A3F" p-id="34298"></path><path d="M727.04 522.24a40.96 40.96 0 1 1 0 81.92 40.96 40.96 0 0 1 0-81.92z" fill="#ECC35D" p-id="34299"></path><path d="M757.76 368.64H256a40.96 40.96 0 0 1-40.96-40.96v20.48a40.96 40.96 0 0 0 40.96 40.96h501.76a51.2 51.2 0 0 1 51.2 51.2v-20.48a51.2 51.2 0 0 0-51.2-51.2z" fill="#CA8B5F" p-id="34300"></path><path d="M757.76 727.04H266.24a51.2 51.2 0 0 1-51.2-51.2v20.48a51.2 51.2 0 0 0 51.2 51.2h491.52a51.2 51.2 0 0 0 51.2-51.2v-20.48a51.2 51.2 0 0 1-51.2 51.2z" fill="#B27245" p-id="34301"></path></svg>