<?xml version="1.0" standalone="no"?><!DOCTYPE svg PUBLIC "-//W3C//DTD SVG 1.1//EN" "http://www.w3.org/Graphics/SVG/1.1/DTD/svg11.dtd"><svg t="1614417866619" class="icon" viewBox="0 0 1024 1024" version="1.1" xmlns="http://www.w3.org/2000/svg" p-id="35428" xmlns:xlink="http://www.w3.org/1999/xlink" width="128" height="128"><defs><style type="text/css"></style></defs><path d="M753.54 344.34L453.88 708.92a15.08 15.08 0 0 1-21.24 2l-227.4-187.14a15.14 15.14 0 0 1-2-21.28L502.82 138A15.08 15.08 0 0 1 524 136l227.4 187.14a15.14 15.14 0 0 1 2.14 21.2z" fill="#12B886" p-id="35429"></path><path d="M870.44 385.42L503.18 685.54a15.22 15.22 0 0 1-21.38-2.12l-187.56-228.54a15.14 15.14 0 0 1 2.14-21.32L663.64 133.44a15.22 15.22 0 0 1 21.38 2.12L872.58 364a15.14 15.14 0 0 1-2.14 21.42z" fill="#20C997" p-id="35430"></path><path d="M909.3 355v441.74a89.32 89.32 0 0 1-89.4 89.26H269.4A89.32 89.32 0 0 1 180 796.74V355a89.32 89.32 0 0 1 89.4-89.26h550.5a89.32 89.32 0 0 1 89.4 89.26z" fill="#9775FA" p-id="35431"></path><path d="M948 508.28v135.18A40.64 40.64 0 0 1 907.26 684h-51.54c-60.12 0-110.96-47.42-111.42-107.26a108.24 108.24 0 0 1 108.64-109h54.32A40.64 40.64 0 0 1 948 508.28z" fill="#F06595" p-id="35432"></path><path d="M807.44 575.88a36.72 36.66 90 1 0 73.32 0 36.72 36.66 90 1 0-73.32 0Z" fill="#FFDEEB" p-id="35433"></path><path d="M78 817.2m5.76 0l277.72 0q5.76 0 5.76 5.76l0 57.28q0 5.76-5.76 5.76l-277.72 0q-5.76 0-5.76-5.76l0-57.28q0-5.76 5.76-5.76Z" fill="#FFD43B" p-id="35434"></path><path d="M135.84 748.4m5.76 0l277.72 0q5.76 0 5.76 5.76l0 57.28q0 5.76-5.76 5.76l-277.72 0q-5.76 0-5.76-5.76l0-57.28q0-5.76 5.76-5.76Z" fill="#FAB005" p-id="35435"></path><path d="M78 679.6m5.76 0l277.72 0q5.76 0 5.76 5.76l0 57.28q0 5.76-5.76 5.76l-277.72 0q-5.76 0-5.76-5.76l0-57.28q0-5.76 5.76-5.76Z" fill="#FFD43B" p-id="35436"></path><path d="M164.76 610.8m5.76 0l277.72 0q5.76 0 5.76 5.76l0 57.28q0 5.76-5.76 5.76l-277.72 0q-5.76 0-5.76-5.76l0-57.28q0-5.76 5.76-5.76Z" fill="#FAB005" p-id="35437"></path><path d="M106.92 542m5.76 0l277.72 0q5.76 0 5.76 5.76l0 57.28q0 5.76-5.76 5.76l-277.72 0q-5.76 0-5.76-5.76l0-57.28q0-5.76 5.76-5.76Z" fill="#FFD43B" p-id="35438"></path></svg>