<?xml version="1.0" standalone="no"?><!DOCTYPE svg PUBLIC "-//W3C//DTD SVG 1.1//EN" "http://www.w3.org/Graphics/SVG/1.1/DTD/svg11.dtd"><svg t="1614417890430" class="icon" viewBox="0 0 1024 1024" version="1.1" xmlns="http://www.w3.org/2000/svg" p-id="37431" xmlns:xlink="http://www.w3.org/1999/xlink" width="128" height="128"><defs><style type="text/css"></style></defs><path d="M639.824457 256.943543H382.383543C215.990857 315.4944 101.5296 476.547657 101.5296 654.467657c0 208.808229 125.834971 320.724114 397.845943 326.824229v0.585143h23.405714v-0.585143c272.018286-6.107429 397.845943-118.016 397.845943-326.824229 0.007314-177.92-114.446629-338.973257-280.802743-397.524114z m-11.702857 420.929828h11.702857v2.362515c13.560686 4.834743 23.369143 17.481143 23.369143 32.709485 0 15.228343-9.815771 27.874743-23.369143 32.709486v2.362514H546.194286v46.774858s5.851429 51.6096-35.108572 51.6096-35.108571-51.6096-35.108571-51.6096v-46.774858H382.383543v-2.362514c-13.597257-4.834743-23.405714-17.481143-23.405714-32.709486 0-15.228343 9.815771-27.874743 23.405714-32.709485v-2.362515h93.5936v-46.774857H382.383543v-2.362514c-13.597257-4.834743-23.405714-17.481143-23.405714-32.709486s9.815771-27.874743 23.405714-32.709485v-2.362515h93.5936c-36.234971-41.764571-89.665829-88.144457-89.665829-88.137143-9.669486-9.815771-17.481143-38.4512-3.927771-52.194742 13.5168-13.699657 43.322514-5.741714 52.992 2.801371l64.007314 56.554057v0.724114l10.942172 10.283886 0.760685-0.694857 0.760686 0.694857 10.942171-10.283886v-0.738742l64.007315-56.554058c9.669486-8.543086 39.4752-16.501029 53.028571-2.801371 13.560686 13.736229 5.705143 42.378971-3.964343 52.194743 0 0-53.430857 46.379886-89.665828 88.137143h93.630171v2.362514c13.560686 4.834743 23.369143 17.481143 23.369143 32.709486s-9.815771 27.874743-23.369143 32.709485v2.362515H546.194286v46.774857h81.927314zM639.824457 186.755657H382.383543s-70.224457-58.697143-70.224457-93.520457c0-31.583086 109.399771-42.781257 178.132114-46.2336 6.217143-0.109714 12.975543-0.219429 20.7872-0.365714 7.811657 0.146286 14.577371 0.256 20.7872 0.365714 68.732343 3.452343 178.132114 14.650514 178.132114 46.2336 0.007314 34.823314-70.173257 93.520457-70.173257 93.520457z" fill="#FF8200" p-id="37432"></path><path d="M511.085714 46.167771c-6.685257 0.182857-13.626514 0.475429-20.7872 0.833829-74.152229 1.024-39.072914-2.684343 20.7872-0.833829zM531.872914 47.008914a881.298286 881.298286 0 0 0-20.7872-0.833828c59.860114-1.857829 94.932114 1.850514 20.7872 0.833828z" fill="#FF8200" p-id="37433"></path></svg>