<?xml version="1.0" standalone="no"?><!DOCTYPE svg PUBLIC "-//W3C//DTD SVG 1.1//EN" "http://www.w3.org/Graphics/SVG/1.1/DTD/svg11.dtd"><svg t="1614417895196" class="icon" viewBox="0 0 1210 1024" version="1.1" xmlns="http://www.w3.org/2000/svg" p-id="37573" xmlns:xlink="http://www.w3.org/1999/xlink" width="151.25" height="128"><defs><style type="text/css"></style></defs><path d="M1016.448 279.994182l-31.650909-116.363637a46.545455 46.545455 0 0 0-57.018182-32.814545l-563.432727 149.178182h652.101818z" fill="#F6716F" p-id="37574"></path><path d="M155.589818 280.692364h977.454546v713.774545h-977.454546z" fill="#96DDFF" p-id="37575"></path><path d="M1133.044364 947.688727v-377.483636c-47.941818 107.985455-163.607273 268.334545-428.683637 268.334545a1657.483636 1657.483636 0 0 1-548.770909-102.167272v209.454545a46.545455 46.545455 0 0 0 46.545455 46.545455h884.363636a46.545455 46.545455 0 0 0 46.545455-44.683637z" fill="#69BAF9" p-id="37576"></path><path d="M1086.498909 279.994182h-884.363636a46.545455 46.545455 0 0 0-46.545455 46.545454v67.490909a46.545455 46.545455 0 0 1 46.545455-46.545454h884.363636a46.545455 46.545455 0 0 1 46.545455 46.545454v-67.490909a46.545455 46.545455 0 0 0-46.545455-46.545454z" fill="#C7ECFF" p-id="37577"></path><path d="M869.131636 512.721455h310.458182v248.785454h-310.458182a62.138182 62.138182 0 0 1-61.905454-62.603636v-123.578182a62.138182 62.138182 0 0 1 61.905454-62.603636z" fill="#69BAF9" p-id="37578"></path><path d="M1172.840727 581.143273s14.429091 124.043636-156.392727 124.043636a652.8 652.8 0 0 1-209.454545-30.952727v24.669091a61.905455 61.905455 0 0 0 61.905454 61.905454h310.690909v-168.727272l-6.749091-10.938182z" fill="#599ED4" p-id="37579"></path><path d="M23.633455 792.692364a201.774545 201.774545 0 1 0 403.54909 0c0-111.429818-90.333091-201.774545-201.774545-201.774546-111.429818 0-201.774545 90.344727-201.774545 201.774546z" fill="#FFC670" p-id="37580"></path><path d="M327.575273 619.077818a201.309091 201.309091 0 0 1-275.781818 275.781818 201.541818 201.541818 0 1 0 275.781818-275.781818z" fill="#FFA742" p-id="37581"></path><path d="M1179.589818 489.448727h-23.272727v-162.909091a69.818182 69.818182 0 0 0-69.818182-69.818181h-52.363636l-26.996364-101.003637a69.818182 69.818182 0 0 0-85.410909-49.338182l-25.6 6.981819-34.676364-72.843637a69.818182 69.818182 0 0 0-93.090909-33.745454l-536.901818 249.949091h-29.323636a69.818182 69.818182 0 0 0-69.818182 69.818181v261.585455a224.814545 224.814545 0 0 0 93.090909 429.381818h861.090909a69.818182 69.818182 0 0 0 69.818182-69.818182v-162.909091h23.272727a23.272727 23.272727 0 0 0 23.272727-23.272727v-248.785454a23.272727 23.272727 0 0 0-23.272727-23.272728z m-390.981818-442.181818a23.272727 23.272727 0 0 1 30.952727 11.170909l30.72 66.094546-211.781818 56.785454a23.365818 23.365818 0 0 0 12.101818 45.149091l283.229091-75.869091a23.272727 23.272727 0 0 1 28.392727 16.290909l23.272728 88.901818h-643.956364l447.069091-208.523636z m-741.701818 744.727273a178.501818 178.501818 0 1 1 178.501818 178.269091c-98.443636-0.116364-178.245818-79.825455-178.501818-178.269091z m1062.865454 69.818182h-424.261818a23.272727 23.272727 0 0 0 0 46.545454h424.261818v38.632727a23.272727 23.272727 0 0 1-23.272727 23.272728h-724.712727a220.858182 220.858182 0 0 0 55.621818-61.905455h64a23.272727 23.272727 0 0 0 0-46.545454h-42.356364a224.814545 224.814545 0 0 0-213.643636-294.865455 217.832727 217.832727 0 0 0-46.545455 4.887273v-245.294546a23.272727 23.272727 0 0 1 23.272728-23.272727h884.363636a23.272727 23.272727 0 0 1 23.272727 23.272727v162.909091h-240.64a85.178182 85.178182 0 0 0-85.178181 85.178182v124.276364a85.178182 85.178182 0 0 0 85.178181 85.178182h240.64v77.730909z m46.545455-124.276364h-287.185455a38.632727 38.632727 0 0 1-38.632727-38.632727v-123.578182a38.632727 38.632727 0 0 1 38.632727-39.330909h287.185455v201.541818z" fill="#484F55" p-id="37582"></path><path d="M900.317091 660.736h34.909091a23.272727 23.272727 0 0 0 0-46.545455h-34.909091a23.272727 23.272727 0 0 0 0 46.545455z m-310.458182 201.076364h-30.952727a23.272727 23.272727 0 0 0 0 46.545454h30.952727a23.272727 23.272727 0 0 0 0-46.545454zM226.292364 875.822545l-45.870546 16.698182c-4.398545 1.245091-8.331636 0.663273-11.810909-1.745454a24.645818 24.645818 0 0 1-8.087273-9.274182c-0.965818-4.119273-0.756364-7.866182 0.616728-11.240727 1.384727-3.362909 4.154182-5.981091 8.32-7.854546l45.870545-16.698182-5.434182-14.941091-45.963636 16.465455c-4.398545 1.233455-8.226909 0.930909-11.508364-0.930909-3.269818-1.838545-5.899636-4.736-7.866182-8.669091-0.965818-4.130909-0.756364-7.877818 0.616728-11.240727 1.373091-3.374545 4.142545-5.992727 8.308363-7.866182l34.234182-12.450909-52.224-44.381091a37.957818 37.957818 0 0 1-7.156363-5.585455 20.782545 20.782545 0 0 1-5.387637-8.913454c-0.814545-4.724364-0.546909-8.890182 0.814546-12.520727 1.373091-3.630545 5.166545-7.028364 11.380363-10.181819 3.909818-1.070545 7.796364-1.012364 11.636364 0.186182 3.84 1.198545 7.214545 2.792727 10.088727 4.794182l60.136727 52.782545 15.52291-80.86109c0.930909-3.374545 2.513455-6.632727 4.770909-9.797819 2.269091-3.141818 5.224727-5.655273 8.843636-7.517091 2.443636-0.698182 4.736-1.175273 6.888727-1.419636 2.152727-0.256 4.189091-0.093091 6.097455 0.465455 1.908364 0.558545 3.746909 1.675636 5.527273 3.351272 1.780364 1.687273 3.502545 4.096 5.189818 7.249455 1.675636 4.584727 1.664 9.506909 0 14.778182l-15.092364 73.169454 34.944-12.718545c4.224-1.186909 7.994182-0.942545 11.287273 0.721454 3.304727 1.664 5.829818 4.421818 7.586909 8.261819 1.175273 4.224 1.058909 8.203636-0.360727 11.938909-1.419636 3.746909-4.130909 6.516364-8.145455 8.331636l-45.312 16.756364 5.271273 14.475636 45.637818-16.605091c4.235636-1.186909 8.064-0.791273 11.473455 1.186909 3.409455 1.978182 5.992727 4.887273 7.749818 8.727273 1.175273 4.235636 1.082182 8.157091-0.290909 11.787636-1.361455 3.642182-4.049455 6.365091-8.052364 8.180364l-45.730909 16.372364 9.146182 25.134545c4.258909 13.672727-0.663273 23.074909-14.766546 28.206545-6.981818 2.536727-13.009455 2.850909-18.094545 0.954182-5.096727-1.908364-9.029818-6.213818-11.822546-12.893091l-8.983272-24.669091z" fill="#484F55" p-id="37583"></path></svg>