<?xml version="1.0" standalone="no"?><!DOCTYPE svg PUBLIC "-//W3C//DTD SVG 1.1//EN" "http://www.w3.org/Graphics/SVG/1.1/DTD/svg11.dtd"><svg t="1614417777427" class="icon" viewBox="0 0 1129 1024" version="1.1" xmlns="http://www.w3.org/2000/svg" p-id="29690" xmlns:xlink="http://www.w3.org/1999/xlink" width="141.125" height="128"><defs><style type="text/css"></style></defs><path d="M1056.130593 0.000706H73.798493A73.445391 73.445391 0 0 0 0 73.092994v877.813659A73.445391 73.445391 0 0 0 73.798493 1023.998941h982.3321A73.445391 73.445391 0 0 0 1129.929086 950.906653V73.092994A73.445391 73.445391 0 0 0 1056.130593 0.000706z" fill="#BD7255" p-id="29691"></path><path d="M98.162589 155.365956a12.358599 12.358599 0 0 1-12.358599-12.3586V96.397781a35.310284 35.310284 0 0 1 35.310284-35.310284h26.12961a12.358599 12.358599 0 1 1 0 24.364096h-24.364096a12.358599 12.358599 0 0 0-12.358599 12.3586v45.550266a12.358599 12.358599 0 0 1-12.3586 12.005497zM162.780409 964.324561H122.879788a35.310284 35.310284 0 0 1-35.310284-35.310284v-51.199912a12.358599 12.358599 0 0 1 24.717199 0v50.140603a12.358599 12.358599 0 0 0 12.358599 12.3586h38.135107a12.358599 12.358599 0 1 1 0 24.010993zM277.891935 84.039182H228.81064a12.358599 12.358599 0 1 1 0-24.364096h49.081295a12.358599 12.358599 0 1 1 0 24.364096zM400.771723 84.039182H353.102839a12.358599 12.358599 0 1 1 0-24.364096h49.081295a12.358599 12.358599 0 1 1-1.412411 24.364096zM523.298408 84.039182h-49.081295a12.358599 12.358599 0 1 1 0-24.364096h49.081295a12.358599 12.358599 0 1 1 0 24.364096zM650.768533 84.039182H600.274827a12.358599 12.358599 0 1 1 0-24.364096h49.081295a12.358599 12.358599 0 1 1 1.412411 24.364096zM773.648321 84.039182h-49.081294a12.358599 12.358599 0 1 1 0-24.364096h49.081294a12.358599 12.358599 0 1 1 0 24.364096zM896.528109 84.039182H847.446815a12.358599 12.358599 0 1 1 0-24.364096h49.081294a12.358599 12.358599 0 1 1 0 24.364096zM302.256031 964.324561H253.174736a12.358599 12.358599 0 1 1 0-24.364096h49.081295a12.358599 12.358599 0 1 1 0 24.364096zM423.723407 964.324561h-47.668883a12.358599 12.358599 0 1 1 0-24.364096H423.723407a12.358599 12.358599 0 1 1 0 24.364096zM548.015607 964.324561h-49.081295a12.358599 12.358599 0 1 1 0-24.364096h49.081295a12.358599 12.358599 0 1 1 0 24.364096zM675.485732 964.324561h-49.081295a12.358599 12.358599 0 1 1 0-24.364096h49.081295a12.358599 12.358599 0 1 1 0 24.364096zM798.36552 964.324561h-49.081295a12.358599 12.358599 0 1 1 0-24.364096h49.081295a12.358599 12.358599 0 1 1 0 24.364096zM921.245308 964.324561H872.164014a12.358599 12.358599 0 1 1 0-24.364096h49.081294a12.358599 12.358599 0 1 1 0 24.364096zM1031.766497 155.365956a12.358599 12.358599 0 0 1-12.358599-12.3586V96.397781a12.358599 12.358599 0 0 0-12.3586-12.358599h-24.717199a12.358599 12.358599 0 1 1 0-24.364096h24.717199a35.310284 35.310284 0 0 1 35.310284 35.310284v48.375089a12.358599 12.358599 0 0 1-10.593085 12.005497zM1007.049298 964.324561h-24.717199a12.358599 12.358599 0 1 1 0-24.364096h24.717199a12.358599 12.358599 0 0 0 12.3586-12.358599v-49.787501a12.358599 12.358599 0 0 1 24.717198 0v50.140603a35.310284 35.310284 0 0 1-37.075798 36.369593z" fill="#F6C253" p-id="29692"></path><path d="M1080.847792 237.638917h-147.596987c-162.427306 0-294.840871 111.227394-294.840871 247.171988v39.900621c0 137.003902 132.060462 247.171988 294.840871 247.171987h147.243884a49.081295 49.081295 0 0 0 49.434397-46.609575V286.367109a49.081295 49.081295 0 0 0-49.081294-48.728192z" fill="#84523C" p-id="29693"></path><path d="M835.088215 505.997075a73.798493 73.092288 0 1 0 147.596987 0 73.798493 73.092288 0 1 0-147.596987 0Z" fill="#F6C253" p-id="29694"></path><path d="M98.162589 299.078811a12.358599 12.358599 0 0 1-12.358599-12.358599V237.99202a12.358599 12.358599 0 0 1 24.717199 0v48.728192a12.358599 12.358599 0 0 1-12.3586 12.358599zM98.162589 420.899291a12.358599 12.358599 0 0 1-12.358599-12.3586v-48.728191a12.358599 12.358599 0 0 1 24.717199 0v48.728191a12.358599 12.358599 0 0 1-12.3586 12.3586zM98.162589 547.310107a12.358599 12.358599 0 0 1-12.358599-12.358599v-48.375089a12.358599 12.358599 0 0 1 24.717199 0v48.728192a12.358599 12.358599 0 0 1-12.3586 12.005496zM98.162589 670.896101a12.358599 12.358599 0 0 1-12.358599-12.358599v-50.140603a12.358599 12.358599 0 0 1 24.717199 0v48.728191a12.358599 12.358599 0 0 1-12.3586 13.771011zM98.162589 791.304169a12.358599 12.358599 0 0 1-12.358599-12.358599v-48.728192a12.358599 12.358599 0 0 1 24.717199 0v48.728192a12.358599 12.358599 0 0 1-12.3586 12.358599z" fill="#F6C253" p-id="29695"></path></svg>