<?xml version="1.0" standalone="no"?><!DOCTYPE svg PUBLIC "-//W3C//DTD SVG 1.1//EN" "http://www.w3.org/Graphics/SVG/1.1/DTD/svg11.dtd"><svg t="1614417321907" class="icon" viewBox="0 0 1024 1024" version="1.1" xmlns="http://www.w3.org/2000/svg" p-id="16066" xmlns:xlink="http://www.w3.org/1999/xlink" width="128" height="128"><defs><style type="text/css"></style></defs><path d="M733.184 105.931034L971.034483 343.781517l-9.321931 9.321931H1024V105.931034H733.184M426.796138 105.931034H123.586207a123.586207 123.586207 0 1 0 0 247.172414h74.699034l-9.339586-9.321931L426.796138 105.931034" fill="#5E3118" p-id="16067"></path><path d="M292.069517 149.751172c-11.316966 0.847448-22.916414 1.430069-34.621793 1.853794a17.655172 17.655172 0 0 0 0.617931 35.292689l0.653242-0.017655a935.300414 935.300414 0 0 0 35.963586-1.906759 17.655172 17.655172 0 0 0-2.612966-35.222069M186.932966 153.335172c-12.288 0.335448-24.346483 0.794483-35.910621 1.518345a17.655172 17.655172 0 1 0 2.171586 35.239724 963.442759 963.442759 0 0 1 34.710069-1.447724c9.728-0.282483 17.425655-8.386207 17.160828-18.149517-0.247172-9.745655-8.66869-16.701793-18.131862-17.160828M76.958897 166.576552c-16.013241 5.243586-28.265931 12.25269-37.428966 21.398069a17.690483 17.690483 0 0 0 12.482207 30.137379 17.584552 17.584552 0 0 0 12.482207-5.15531c5.08469-5.08469 12.976552-9.410207 23.463724-12.835311a17.655172 17.655172 0 1 0-10.999172-33.544827M882.758621 158.896552h-35.310345a17.655172 17.655172 0 1 0 0 35.310345h35.310345a17.655172 17.655172 0 1 0 0-35.310345M988.689655 158.896552h-35.310345a17.655172 17.655172 0 1 0 0 35.310345h35.310345a17.655172 17.655172 0 1 0 0-35.310345" fill="#77442B" p-id="16068"></path><path d="M980.850759 353.103448L632.055172 4.802207a2.454069 2.454069 0 0 0-3.460413 0L279.816828 353.103448h701.033931" fill="#EBEBD6" p-id="16069"></path><path d="M280.293517 353.103448L579.990069 53.406897 531.385379 4.802207a2.454069 2.454069 0 0 0-3.460413 0L179.147034 353.103448h101.146483" fill="#BFBDA3" p-id="16070"></path><path d="M835.636966 364.137931l5.473103-5.455448L631.348966 149.186207a1.412414 1.412414 0 0 0-2.030345 0L419.645793 358.682483l5.455448 5.455448h410.535725" fill="#6D8C60" p-id="16071"></path><path d="M0 229.517241v685.868138A108.614621 108.614621 0 0 0 108.614621 1024H1024V353.103448H123.586207a123.586207 123.586207 0 0 1-123.586207-123.586207" fill="#77442B" p-id="16072"></path><path d="M918.068966 441.37931h-35.310345a17.655172 17.655172 0 1 1 0-35.310344h35.310345a17.655172 17.655172 0 1 1 0 35.310344z m-105.931035 0h-35.310345a17.655172 17.655172 0 1 1 0-35.310344h35.310345a17.655172 17.655172 0 1 1 0 35.310344z m-105.931034 0h-35.310345a17.655172 17.655172 0 1 1 0-35.310344h35.310345a17.655172 17.655172 0 1 1 0 35.310344z m-105.931035 0h-35.310345a17.655172 17.655172 0 1 1 0-35.310344h35.310345a17.655172 17.655172 0 1 1 0 35.310344z m-105.931034 0h-35.310345a17.655172 17.655172 0 1 1 0-35.310344h35.310345a17.655172 17.655172 0 1 1 0 35.310344z m-105.931035 0h-35.310345a17.655172 17.655172 0 1 1 0-35.310344h35.310345a17.655172 17.655172 0 1 1 0 35.310344z m-105.931034 0h-35.310345a17.655172 17.655172 0 1 1 0-35.310344h35.310345a17.655172 17.655172 0 1 1 0 35.310344z m-105.931035 0H141.241379a17.655172 17.655172 0 1 1 0-35.310344h35.310345a17.655172 17.655172 0 1 1 0 35.310344z m-104.324414-11.140413a17.44331 17.44331 0 0 1-7.326896-1.606621 141.029517 141.029517 0 0 1-33.792-21.733517 17.672828 17.672828 0 0 1 23.128276-26.694621c7.64469 6.638345 16.172138 12.129103 25.352827 16.331034a17.655172 17.655172 0 0 1-7.362207 33.703725zM918.068966 971.034483h-35.310345a17.655172 17.655172 0 1 1 0-35.310345h35.310345a17.655172 17.655172 0 1 1 0 35.310345z m-105.931035 0h-35.310345a17.655172 17.655172 0 1 1 0-35.310345h35.310345a17.655172 17.655172 0 1 1 0 35.310345z m-105.931034 0h-35.310345a17.655172 17.655172 0 1 1 0-35.310345h35.310345a17.655172 17.655172 0 1 1 0 35.310345z m-105.931035 0h-35.310345a17.655172 17.655172 0 1 1 0-35.310345h35.310345a17.655172 17.655172 0 1 1 0 35.310345z m-105.931034 0h-35.310345a17.655172 17.655172 0 1 1 0-35.310345h35.310345a17.655172 17.655172 0 1 1 0 35.310345z m-105.931035 0h-35.310345a17.655172 17.655172 0 1 1 0-35.310345h35.310345a17.655172 17.655172 0 1 1 0 35.310345z m-105.931034 0h-35.310345a17.655172 17.655172 0 1 1 0-35.310345h35.310345a17.655172 17.655172 0 1 1 0 35.310345z m-105.931035 0H141.241379a17.655172 17.655172 0 1 1 0-35.310345h35.310345a17.655172 17.655172 0 1 1 0 35.310345z m-104.324414-11.140414a17.44331 17.44331 0 0 1-7.326896-1.606621 141.029517 141.029517 0 0 1-33.792-21.733517 17.672828 17.672828 0 0 1 23.128276-26.694621c7.64469 6.638345 16.172138 12.129103 25.352827 16.331035a17.655172 17.655172 0 0 1-7.362207 33.703724z" fill="#91553D" p-id="16073"></path><path d="M1024 797.431172H812.137931a105.931034 105.931034 0 0 1 0-211.862069h211.862069v211.862069" fill="#6D3D25" p-id="16074"></path><path d="M1024 776.827586H812.137931a105.931034 105.931034 0 1 1 0-211.862069h211.862069v211.862069" fill="#5E3118" p-id="16075"></path><path d="M882.758621 670.896552a52.965517 52.965517 0 1 1-105.931035 0 52.965517 52.965517 0 0 1 105.931035 0" fill="#E4C05C" p-id="16076"></path></svg>