<?xml version="1.0" standalone="no"?><!DOCTYPE svg PUBLIC "-//W3C//DTD SVG 1.1//EN" "http://www.w3.org/Graphics/SVG/1.1/DTD/svg11.dtd"><svg t="1614417919098" class="icon" viewBox="0 0 1024 1024" version="1.1" xmlns="http://www.w3.org/2000/svg" p-id="40831" xmlns:xlink="http://www.w3.org/1999/xlink" width="128" height="128"><defs><style type="text/css"></style></defs><path d="M254.1824 435.2896s-119.4624 68.8896-102.4 263.4496 114.3424 238.9376 271.36 235.52c157.0176-3.4176 407.8976-96.9984 407.8976-96.9984s-315.7376 100.5824-505.1776-42.944c-158.208-119.872-71.68-359.0272-71.68-359.0272z" fill="#FF5E3B" p-id="40832"></path><path d="M636.1984 487.4496c12.2752-12.2752 12.2752-30.6816 0-42.9568-12.2752-12.2752-30.6816-12.2752-42.9696 0l-76.7104 73.6384-76.7104-73.6384c-12.2752-12.2752-30.6816-12.2752-42.9568 0-12.2752 12.2752-12.2752 30.6816 0 42.9568l85.9136 82.8544v18.4064h-61.376c-18.4064 0-30.6816 12.2752-30.6816 30.6816 0 18.4192 12.2752 30.6816 30.6816 30.6816h61.376v30.6816h-61.376c-18.4064 0-30.6816 12.2752-30.6816 30.6944 0 18.4064 12.2752 30.6816 30.6816 30.6816h61.376v64.4352c0 18.4064 12.2752 30.6816 30.6816 30.6816 18.4192 0 30.6816-12.2752 30.6816-30.6816V742.144h61.376c18.4064 0 30.6816-12.2752 30.6816-30.6816 0-18.4192-12.2752-30.6944-30.6816-30.6944H544.128v-30.6816h61.376c18.4064 0 30.6816-12.2752 30.6816-30.6816 0-18.4064-12.2752-30.6816-30.6816-30.6816H544.128v-12.2752l92.0704-88.9984z m0 0" fill="#323333" p-id="40833"></path><path d="M679.1552 337.1008c33.7536-36.8256 73.6384-92.0576 73.6384-150.3616 0-33.7536-9.2032-61.3632-30.6816-82.8544C682.2144 64 611.648 64 531.8656 64H492.1472c-79.7824 0-150.3616 0-190.2464 39.8848-21.4784 21.4784-30.6816 49.1008-30.6816 82.8544 0 58.304 39.8848 113.536 73.6384 150.3616-138.0864 70.5664-233.216 208.6528-230.144 355.9424 0 265.3568 266.7904 266.944 396.5696 266.9568h1.4592c129.7792-0.0128 396.5696-1.6 396.5696-266.9568 3.0464-147.2896-92.0832-285.376-230.1568-355.9424zM512 898.624c-244.2624-0.2432-335.9232-55.5648-335.9232-205.5808 0-159.552 119.6672-276.16 233.2032-319.1296 9.2032-6.1312 15.3472-15.3344 18.4192-24.5504 3.072-9.2032 0-21.4784-9.2032-27.6224-55.232-46.0288-88.9856-98.1888-88.9856-135.0144 0-27.6224 9.2032-36.8256 9.2032-39.8848 21.4784-21.4784 82.8544-21.4784 147.2896-21.4784h51.9808c64.4352 0 125.8112 0 147.2896 21.4784 0 3.072 9.2032 12.2752 9.2032 39.8848 0 36.8256-33.7536 88.9856-88.9856 135.0144-9.2032 6.144-12.2752 18.4192-9.2032 27.6224 3.072 9.2032 9.2032 18.4064 18.4192 24.5504 113.536 42.9568 233.2032 159.5648 233.2032 319.1296 0.0128 150.016-91.648 205.3376-335.9104 205.5808z" fill="#323333" p-id="40834"></path></svg>