<?xml version="1.0" standalone="no"?><!DOCTYPE svg PUBLIC "-//W3C//DTD SVG 1.1//EN" "http://www.w3.org/Graphics/SVG/1.1/DTD/svg11.dtd"><svg t="1614476397275" class="icon" viewBox="0 0 1152 1024" version="1.1" xmlns="http://www.w3.org/2000/svg" p-id="53833" xmlns:xlink="http://www.w3.org/1999/xlink" width="144" height="128"><defs><style type="text/css"></style></defs><path d="M921.408 32c88 0 160.192 67.712 165.824 153.472l0.384 10.816v130.368A131.584 131.584 0 0 1 1152 439.872V565.76c0 48.128-25.856 90.24-64.384 113.216v130.368c0 87.232-68.672 158.4-155.264 163.968l-10.88 0.32H166.144c-88 0-160.192-67.712-165.824-153.472L0 809.344V196.288C0 109.056 68.672 37.888 155.264 32.32L166.144 32h755.264z m0 65.856h-755.2c-52.48 0-95.36 39.36-99.968 89.472l-0.384 8.96v613.12c0 51.2 39.936 93.44 91.2 97.984l9.152 0.384h755.2c52.48 0 95.36-39.36 99.968-89.472l0.384-8.96v-111.936H602.496A131.648 131.648 0 0 1 470.848 565.76V439.872c0-72.704 58.88-131.648 131.648-131.648h419.2l0.064-111.936c0-51.2-40-93.504-91.2-98.048l-9.152-0.384z m98.944 276.16h-417.92c-33.728 0-61.568 25.408-65.344 58.176l-0.448 7.68V565.76c0 33.792 25.408 61.632 58.176 65.408l7.68 0.448h417.856c33.728 0 61.568-25.408 65.408-58.176l0.384-7.68V439.872c0-33.792-25.408-61.632-58.112-65.408l-7.68-0.448z" fill="#1E2229" p-id="53834"></path><path d="M678.976 489.728m-64 0a64 64 0 1 0 128 0 64 64 0 1 0-128 0Z" fill="#6731FC" p-id="53835"></path></svg>