<?xml version="1.0" standalone="no"?><!DOCTYPE svg PUBLIC "-//W3C//DTD SVG 1.1//EN" "http://www.w3.org/Graphics/SVG/1.1/DTD/svg11.dtd"><svg t="1620206008098" class="icon" viewBox="0 0 1024 1024" version="1.1" xmlns="http://www.w3.org/2000/svg" p-id="3610" xmlns:xlink="http://www.w3.org/1999/xlink" width="200" height="200"><defs><style type="text/css"></style></defs><path d="M864 320H192c-35.2 0-64-28.8-64-64s28.8-64 64-64h576c17.92 0 32 14.08 32 32V256h64v-32c0-53.12-42.88-96-96-96H192c-70.4 0-128 57.6-128 128v512c0 70.4 57.6 128 128 128h672c53.12 0 96-42.88 96-96v-384c0-53.12-42.88-96-96-96z m32 480c0 17.92-14.08 32-32 32H192c-35.2 0-64-28.8-64-64V366.08c19.2 10.88 40.32 17.92 64 17.92h672c17.92 0 32 14.08 32 32v384z" fill="#C36DB4" p-id="3611"></path><path d="M704 595.2m-64 0a64 64 0 1 0 128 0 64 64 0 1 0-128 0Z" fill="#C36DB4" p-id="3612"></path></svg>