<?xml version="1.0" standalone="no"?><!DOCTYPE svg PUBLIC "-//W3C//DTD SVG 1.1//EN" "http://www.w3.org/Graphics/SVG/1.1/DTD/svg11.dtd"><svg t="1620206119511" class="icon" viewBox="0 0 1024 1024" version="1.1" xmlns="http://www.w3.org/2000/svg" p-id="11354" xmlns:xlink="http://www.w3.org/1999/xlink" width="200" height="200"><defs><style type="text/css"></style></defs><path d="M835.584 860.16H153.6V307.2h681.984c40.96 0 75.776 32.768 75.776 75.776v403.456c0 40.96-32.768 73.728-75.776 73.728z" fill="#BFBFBF" p-id="11355"></path><path d="M835.584 880.64H133.12V286.72h702.464c53.248 0 96.256 43.008 96.256 96.256v403.456c0 51.2-43.008 94.208-96.256 94.208zM174.08 839.68h661.504c30.72 0 55.296-24.576 55.296-55.296V382.976c0-30.72-24.576-55.296-55.296-55.296H174.08v512z" fill="#404040" p-id="11356"></path><path d="M573.44 815.104L153.6 770.048l165.888-548.864 489.472 149.504z" fill="#FFB164" p-id="11357"></path><path d="M442.28608 138.97728l490.0864 148.1728-165.94944 548.90496-490.0864-148.1728z" fill="#FF6161" p-id="11358"></path><path d="M806.912 884.736H122.88V358.4h684.032c40.96 0 73.728 32.768 73.728 73.728v380.928c0 38.912-32.768 71.68-73.728 71.68z" fill="#FFFFFF" p-id="11359"></path><path d="M806.912 905.216H102.4V337.92h704.512c51.2 0 94.208 40.96 94.208 94.208v380.928c0 49.152-43.008 92.16-94.208 92.16zM143.36 864.256h663.552c28.672 0 53.248-24.576 53.248-53.248V432.128c0-28.672-24.576-53.248-53.248-53.248H143.36v485.376z" fill="#404040" p-id="11360"></path><path d="M194.56 798.72h61.44v40.96h-61.44zM276.48 798.72h61.44v40.96h-61.44zM358.4 798.72h61.44v40.96h-61.44zM440.32 798.72h61.44v40.96h-61.44zM522.24 798.72h61.44v40.96h-61.44zM604.16 798.72h61.44v40.96h-61.44zM686.08 798.72h61.44v40.96h-61.44zM768 798.72h61.44v40.96h-61.44z" fill="#404040" p-id="11361"></path><path d="M194.56 409.6h61.44v40.96h-61.44zM276.48 409.6h61.44v40.96h-61.44zM358.4 409.6h61.44v40.96h-61.44zM440.32 409.6h61.44v40.96h-61.44zM522.24 409.6h61.44v40.96h-61.44zM604.16 409.6h61.44v40.96h-61.44zM686.08 409.6h61.44v40.96h-61.44zM768 409.6h61.44v40.96h-61.44z" fill="#404040" p-id="11362"></path><path d="M921.6 487.424H647.168c-40.96 0-73.728 55.296-73.728 122.88s32.768 122.88 73.728 122.88H921.6v-245.76z" fill="#3BC2A8" p-id="11363"></path><path d="M942.08 753.664H647.168c-53.248 0-94.208-63.488-94.208-143.36s40.96-143.36 94.208-143.36H942.08v286.72z m-294.912-245.76c-26.624 0-53.248 43.008-53.248 102.4s28.672 102.4 53.248 102.4H901.12v-204.8H647.168z" fill="#404040" p-id="11364"></path><path d="M647.168 610.304a40.96 36.864 90 1 0 73.728 0 40.96 36.864 90 1 0-73.728 0Z" fill="#FFFFFF" p-id="11365"></path><path d="M112.64 368.64l-20.48-20.48 40.96-61.44 20.48 81.92z" fill="#404040" p-id="11366"></path></svg>