<?xml version="1.0" standalone="no"?><!DOCTYPE svg PUBLIC "-//W3C//DTD SVG 1.1//EN" "http://www.w3.org/Graphics/SVG/1.1/DTD/svg11.dtd"><svg t="1620205977527" class="icon" viewBox="0 0 1024 1024" version="1.1" xmlns="http://www.w3.org/2000/svg" p-id="3050" xmlns:xlink="http://www.w3.org/1999/xlink" width="200" height="200"><defs><style type="text/css"></style></defs><path d="M817.43 848.84H160.81a38.35 38.35 0 0 1-38.35-38.35v-597a38.35 38.35 0 0 1 38.35-38.35h656.62a38.35 38.35 0 0 1 38.35 38.35v85.93a38.35 38.35 0 1 1-76.7 0v-47.55H199.16v520.26h579.92v-47.57a38.35 38.35 0 1 1 76.7 0v85.93a38.35 38.35 0 0 1-38.35 38.35z" fill="#2F3240" p-id="3051"></path><path d="M850.24 373.1H553.7a51.3 51.3 0 0 0-51.3 51.3v175.2a51.3 51.3 0 0 0 51.3 51.3h296.54a51.3 51.3 0 0 0 51.3-51.3V424.4a51.3 51.3 0 0 0-51.3-51.3zM647.51 566.18a55.94 55.94 0 1 1-27.8-108.37c41.59-10 78.1 26.49 68.08 68.08a55.5 55.5 0 0 1-40.28 40.29z" fill="#4CC9C5" p-id="3052"></path></svg>