<?xml version="1.0" standalone="no"?><!DOCTYPE svg PUBLIC "-//W3C//DTD SVG 1.1//EN" "http://www.w3.org/Graphics/SVG/1.1/DTD/svg11.dtd"><svg t="1620206015120" class="icon" viewBox="0 0 1024 1024" version="1.1" xmlns="http://www.w3.org/2000/svg" p-id="4455" xmlns:xlink="http://www.w3.org/1999/xlink" width="200" height="200"><defs><style type="text/css"></style></defs><path d="M511.999 512.001m-511.999 0a511.999 511.999 0 1 0 1023.998 0 511.999 511.999 0 1 0-1023.998 0Z" fill="#1669AD" p-id="4456"></path><path d="M511.999 512.001m-407.005205 0a407.005205 407.005205 0 1 0 814.01041 0 407.005205 407.005205 0 1 0-814.01041 0Z" fill="#2A81C2" p-id="4457"></path><path d="M799.746438 271.32347H365.629286l-44.959912-24.959951c-9.605981-5.32999-21.721958-1.865996-27.053947 7.741985l-44.471914 80.121843-36.103929-9.595981c-10.619979-2.821994-21.517958 3.501993-24.337953 14.119972l-24.569952 92.45182H124.625757c-10.987979 0-19.893961 8.905983-19.893962 19.893961v263.953484c0 10.987979 8.905983 19.893961 19.893962 19.893962h156.699694v26.319948h518.420987c1.401997 0 2.789995-0.074 4.151992-0.207999 0.062-0.008 0.128-0.008 0.188-0.016a41.607919 41.607919 0 0 0 3.789992-0.579999c0.152-0.03 0.307999-0.05 0.459999-0.084a41.839918 41.839918 0 0 0 3.371994-0.867998c0.261999-0.076 0.523999-0.146 0.785998-0.23 0.999998-0.319999 1.979996-0.687999 2.949994-1.079998 1.881996-0.759999 3.683993-1.663997 5.42199-2.677995 0 0 0.004 0 0.004-0.004 12.441976-7.273986 20.823959-20.739959 20.823959-36.193929V313.261388c-0.002-23.161955-18.783963-41.937918-41.947918-41.937918z" fill="#1669AD" p-id="4458"></path><path d="M620.796788 695.048642c0 10.987979-8.909983 19.893961-19.897962 19.893962H144.625718c-10.987979 0-19.893961-8.905983-19.893962-19.893962V431.095158c0-10.987979 8.905983-19.893961 19.893962-19.893961H600.898826c10.987979 0 19.897961 8.905983 19.897962 19.893961v263.953484z" fill="#774197" p-id="4459"></path><path d="M634.344761 721.154591c-2.889994 10.877979-14.053973 17.353966-24.933951 14.461972L157.689692 615.570798c-10.877979-2.887994-17.351966-14.053973-14.459972-24.929952l69.445865-261.317489c2.889994-10.877979 14.053973-17.355966 24.933951-14.461972l451.721118 120.041766c10.875979 2.891994 17.351966 14.053973 14.459971 24.931951l-69.445864 261.319489z" fill="#552C7A" p-id="4460"></path><path d="M620.332788 701.25463c-2.819994 10.615979-13.717973 16.941967-24.335952 14.115973L155.027697 598.184832c-10.619979-2.819994-16.939967-13.717973-14.119972-24.335953l67.791867-255.097502c2.819994-10.617979 13.717973-16.941967 24.339953-14.119972l440.967139 117.189771c10.617979 2.821994 16.937967 13.717973 14.117972 24.337953l-67.791868 255.095501z" fill="#EDC848" p-id="4461"></path><path d="M301.325411 335.205345v406.057207h518.420988c23.163955 0 41.945918-18.771963 41.945918-41.939918v-406.059207l-560.366906 41.941918z" fill="#BE3D27" p-id="4462"></path><path d="M301.325411 335.205345v406.057207h518.420988c23.163955 0 41.945918-18.771963 41.945918-41.939918v-406.059207l-560.366906 41.941918z" fill="#BE3D27" p-id="4463"></path><path d="M840.864358 735.520563a42.081918 42.081918 0 0 0 10.737979-8.955982V294.015426l-10.737979 0.805998v440.699139zM818.312402 741.262552h1.433997c5.901988 0 11.511978-1.227998 16.601968-3.427993V295.159424l-18.035965 1.349997v444.753131z" fill="#E65439" p-id="4464"></path><path d="M819.746399 251.323509H361.817293l-5.995988 8.243984 5.831989 67.395868h-54.397894l-5.929989 8.243984h518.420988c23.163955 0 41.945918-18.775963 41.945918-41.941918s-18.781963-41.941918-41.945918-41.941918z" fill="#E65439" p-id="4465"></path><path d="M863.086314 334.265347l-3.945992-0.661999c0.365999-2.175996 0.549999-4.409991 0.549999-6.641987h3.999992a43.969914 43.969914 0 0 1-0.603999 7.303986zM809.344419 370.901276h-13.857973v-3.999993h13.857973v3.999993z m-27.715946 0h-13.857973v-3.999993h13.857973v3.999993z m-27.713945 0h-13.857973v-3.999993h13.857973v3.999993z m-27.713946 0h-13.857973v-3.999993h13.857973v3.999993z m-27.715946 0h-13.857973v-3.999993h13.857973v3.999993z m-27.715946 0h-13.857973v-3.999993h13.857973v3.999993z m-27.715946 0h-13.857973v-3.999993h13.857973v3.999993z m-27.713946 0h-13.857973v-3.999993h13.857973v3.999993z m-27.713946 0h-13.857973v-3.999993h13.857973v3.999993z m-27.715946 0h-13.857973v-3.999993h13.857973v3.999993z m-27.713945 0h-13.857973v-3.999993h13.857973v3.999993z m-27.715946 0h-13.857973v-3.999993h13.857973v3.999993z m-27.713946 0h-13.857973v-3.999993h13.857973v3.999993z m-27.715946 0h-13.857973v-3.999993h13.857973v3.999993z m-27.715946 0h-13.857973v-3.999993h13.857973v3.999993z m-27.713946 0h-13.857973v-3.999993h13.857973v3.999993z m-27.715946 0h-13.857973v-3.999993h13.857973v3.999993z m457.457107-0.146l-0.323999-3.987992a39.719922 39.719922 0 0 0 12.731975-3.207994l1.605997 3.663993a43.699915 43.699915 0 0 1-14.013973 3.531993z m26.111949-11.431978l-2.707995-2.945994a40.047922 40.047922 0 0 0 8.091984-10.35198l3.511993 1.911996a43.969914 43.969914 0 0 1-8.895982 11.385978zM333.169349 375.901266h-3.999992v-8.999983h8.999983v3.999993h-4.999991zM333.169349 684.624663h-3.999992v-14.031973h3.999992v14.031973z m0-28.065945h-3.999992v-14.033973h3.999992v14.033973z m0-28.065946h-3.999992v-14.033972h3.999992v14.033972z m0-28.065945h-3.999992v-14.033972h3.999992v14.033972z m0-28.063945h-3.999992v-14.033972h3.999992v14.033972z m0-28.067945h-3.999992v-14.033973h3.999992v14.033973z m0-28.063945h-3.999992v-14.033973h3.999992v14.033973z m0-28.065945h-3.999992v-14.033973h3.999992v14.033973z m0-28.067946h-3.999992v-14.031972h3.999992v14.031972z m0-28.063945h-3.999992v-14.031972h3.999992v14.031972z m0-28.063945h-3.999992v-14.035973h3.999992v14.035973zM338.16934 707.656618h-8.999983v-8.999983h3.999992v4.999991h4.999991zM809.326419 707.656618h-13.857973v-3.999992h13.857973v3.999992z m-27.713946 0h-13.857973v-3.999992h13.857973v3.999992z m-27.717945 0h-13.857973v-3.999992h13.857973v3.999992z m-27.713946 0h-13.857973v-3.999992h13.857973v3.999992z m-27.715946 0h-13.857973v-3.999992h13.857973v3.999992z m-27.713946 0h-13.857973v-3.999992h13.857973v3.999992z m-27.713946 0h-13.857973v-3.999992h13.857973v3.999992z m-27.715946 0h-13.857973v-3.999992h13.857973v3.999992z m-27.715946 0h-13.857973v-3.999992h13.857973v3.999992z m-27.715946 0h-13.857972v-3.999992h13.857972v3.999992z m-27.713945 0h-13.857973v-3.999992h13.857973v3.999992z m-27.715946 0h-13.857973v-3.999992h13.857973v3.999992z m-27.713946 0h-13.857973v-3.999992h13.857973v3.999992z m-27.713946 0h-13.857973v-3.999992h13.857973v3.999992z m-27.717946 0h-13.857973v-3.999992h13.857973v3.999992z m-27.713946 0h-13.857973v-3.999992h13.857973v3.999992z m-27.715946 0h-13.857973v-3.999992h13.857973v3.999992z m457.459107-0.144l-0.323999-3.987992a39.631923 39.631923 0 0 0 12.735975-3.201994l1.605997 3.663993a43.715915 43.715915 0 0 1-14.017973 3.525993z m26.117949-11.421978l-2.707995-2.945994a39.979922 39.979922 0 0 0 8.093984-10.34798l3.511994 1.913997a43.999914 43.999914 0 0 1-8.897983 11.379977zM863.086314 671.022689l-3.945992-0.663998c0.365999-2.175996 0.549999-4.411991 0.549999-6.643987h3.999992a44.071914 44.071914 0 0 1-0.603999 7.307985z" fill="#E65439" p-id="4466"></path><path d="M817.906403 259.565493H355.771305v67.395868h462.135098c18.609964 0 33.695934-15.085971 33.695934-33.699934 0-18.607964-15.085971-33.695934-33.695934-33.695934z" fill="#494A4A" p-id="4467"></path><path d="M340.669335 244.597522c-9.605981-5.33399-21.721958-1.863996-27.053948 7.739985L185.513638 483.119056c-5.33599 9.601981-1.871996 21.717958 7.737985 27.045948l108.073788 59.993882V319.103377l39.343924-74.505855z" fill="#DDAE2A" p-id="4468"></path><path d="M340.669335 226.363558c-9.605981-5.32999-21.721958-1.865996-27.053948 7.741985l-128.101749 230.779549c-5.33599 9.603981-1.871996 21.719958 7.737985 27.045947l108.073788 59.993883v-216.719577l5.929989-8.243984h214.639581l-181.225646-100.597803z" fill="#E8E9EC" p-id="4469"></path></svg>