<?xml version="1.0" standalone="no"?><!DOCTYPE svg PUBLIC "-//W3C//DTD SVG 1.1//EN" "http://www.w3.org/Graphics/SVG/1.1/DTD/svg11.dtd"><svg t="1620206024252" class="icon" viewBox="0 0 1024 1024" version="1.1" xmlns="http://www.w3.org/2000/svg" p-id="4606" xmlns:xlink="http://www.w3.org/1999/xlink" width="200" height="200"><defs><style type="text/css"></style></defs><path d="M785.066 426.666V17.066H443.734v170.668h136.532v238.932z" fill="#B0BD58" p-id="4607"></path><path d="M614.4 290.134m-68.266 0a68.266 68.266 0 1 0 136.532 0 68.266 68.266 0 1 0-136.532 0Z" fill="#F5F1C3" p-id="4608"></path><path d="M119.466 426.666h785.066v580.266H119.466z" fill="#51ABD8" p-id="4609"></path><path d="M238.934 187.734h341.334v238.934H238.934z" fill="#B0BD58" p-id="4610"></path><path d="M341.334 426.666c0-37.7 30.566-68.266 68.266-68.266s68.266 30.566 68.266 68.266h-136.532zM238.934 187.734h85.334c0 47.122-38.212 85.334-85.334 85.334V187.734zM580.266 187.734v85.334c-47.122 0-85.334-38.212-85.334-85.334h85.334zM443.734 17.066h85.334c0 47.122-38.212 85.334-85.334 85.334V17.066zM785.066 17.066V102.4c-47.122 0-85.334-38.212-85.334-85.334h85.334z" fill="#F5F1C3" p-id="4611"></path><path d="M580.266 426.666V187.734l34.134 34.132v204.8z" fill="#707838" p-id="4612"></path><path d="M358.4 887.466a819.772 819.772 0 0 1-238.934-34.816v154.282h785.066V646.946c-102.092 142.814-308.24 240.52-546.132 240.52z" fill="#1588C9" p-id="4613"></path><path d="M904.534 750.934H614.4a102.424 102.424 0 0 0-72.414 29.986c-39.988 39.988-40.004 104.824-0.018 144.81l0.018 0.018a102.424 102.424 0 0 0 72.414 29.986h290.134" fill="#1588C9" p-id="4614"></path><path d="M904.534 716.8h-307.2a102.424 102.424 0 0 0-72.414 29.986c-39.988 39.988-40.004 104.824-0.018 144.81l0.018 0.018a102.424 102.424 0 0 0 72.414 29.986h307.2" fill="#FFC117" p-id="4615"></path><path d="M597.334 819.2m-34.134 0a34.134 34.134 0 1 0 68.268 0 34.134 34.134 0 1 0-68.268 0Z" fill="#E97424" p-id="4616"></path><path d="M546.134 819.2c0 28.28 22.92 51.2 51.2 51.2s51.2-22.92 51.2-51.2-22.92-51.2-51.2-51.2-51.2 22.92-51.2 51.2z m68.266 0c0 9.42-7.646 17.066-17.066 17.066s-17.066-7.646-17.066-17.066c0-9.42 7.646-17.066 17.066-17.066s17.066 7.646 17.066 17.066z" fill="" p-id="4617"></path><path d="M119.466 1024h785.066a17.072 17.072 0 0 0 17.066-17.066V426.666a17.072 17.072 0 0 0-17.066-17.066h-102.4V17.066A17.072 17.072 0 0 0 785.066 0H443.734a17.072 17.072 0 0 0-17.066 17.066v153.6h-187.734a17.072 17.072 0 0 0-17.066 17.066V409.6h-102.4a17.072 17.072 0 0 0-17.066 17.066v580.266A17.07 17.07 0 0 0 119.466 1024z m768-119.466H597.334c-47.122 0-85.334-38.212-85.334-85.334s38.212-85.334 85.334-85.334h290.134v170.668zM768 82.91a68.29 68.29 0 0 1-48.776-48.776H768v48.776zM509.576 34.134A68.29 68.29 0 0 1 460.8 82.91V34.134h48.776zM460.8 117.93c42.888-7.322 76.476-40.908 83.798-83.798h139.606c7.322 42.888 40.908 76.476 83.798 83.798V409.6h-170.666v-36.096c5.598 1.246 11.332 1.894 17.066 1.962 47.122 0 85.334-38.212 85.334-85.334S661.522 204.8 614.4 204.8a83.174 83.174 0 0 0-17.066 1.962v-19.03a17.072 17.072 0 0 0-17.066-17.066H460.8V117.93z m102.4 135.646a68.29 68.29 0 0 1-48.776-48.776H563.2v48.776z m34.134-11.11a48.39 48.39 0 0 1 17.066-3.532c28.28 0 51.2 22.92 51.2 51.2s-22.92 51.2-51.2 51.2a48.424 48.424 0 0 1-17.066-3.532v-95.336zM304.776 204.8A68.29 68.29 0 0 1 256 253.576V204.8h48.776zM256 288.598c42.888-7.322 76.476-40.908 83.798-83.798h139.606c7.322 42.888 40.908 76.476 83.798 83.798V409.6h-69.974c-9.386-46.182-54.426-76.032-100.608-66.646a85.338 85.338 0 0 0-66.646 66.646H256v-121.002zM457.66 409.6h-96.12c9.25-26.538 38.264-40.568 64.802-31.318A50.87 50.87 0 0 1 457.66 409.6zM136.534 443.734h34.134V819.2H204.8V443.734h682.666v256H597.334c-65.98 0-119.466 53.486-119.466 119.466s53.486 119.466 119.466 119.466h290.134v51.2H136.534V443.734z" fill="" p-id="4618"></path><path d="M170.666 921.6H204.8v34.134H170.666zM170.666 853.334H204.8v34.134H170.666z" fill="" p-id="4619"></path></svg>