<?xml version="1.0" standalone="no"?><!DOCTYPE svg PUBLIC "-//W3C//DTD SVG 1.1//EN" "http://www.w3.org/Graphics/SVG/1.1/DTD/svg11.dtd"><svg t="1614417788109" class="icon" viewBox="0 0 1024 1024" version="1.1" xmlns="http://www.w3.org/2000/svg" p-id="29979" xmlns:xlink="http://www.w3.org/1999/xlink" width="128" height="128"><defs><style type="text/css"></style></defs><path d="M987.1664 233.616c11.7328 6.2752 20.9424 15.4848 27.216 27.2176 6.2752 11.7328 9.6176 23.3712 9.6176 55.4656v455.4016c0 32.0944-3.3424 43.7328-9.616 55.4656-6.2752 11.7328-15.4848 20.9424-27.2176 27.216-11.7328 6.2752-23.3712 9.6176-55.4656 9.6176H92.2992c-32.0944 0-43.7328-3.3424-55.4656-9.616-11.7328-6.2752-20.9424-15.4848-27.216-27.2176-6.208-11.6048-9.544-23.1152-9.616-54.416L0 316.2992c0-32.0944 3.3424-43.7328 9.616-55.4656 6.2752-11.7328 15.4848-20.9424 27.2176-27.216 11.6048-6.208 23.1152-9.544 54.416-9.616L931.7008 224c32.0944 0 43.7328 3.3424 55.4656 9.616zM816 464c-44.1824 0-80 35.8176-80 80s35.8176 80 80 80 80-35.8176 80-80-35.8176-80-80-80z" fill="#174EE6" p-id="29980"></path><path d="M896 159.6448H192l578.064-105.104c58.048-10.5536 113.6592 27.9472 124.2128 85.9936A106.8256 106.8256 0 0 1 896 159.6448z" fill="#B8E7FF" p-id="29981"></path></svg>