<?xml version="1.0" standalone="no"?><!DOCTYPE svg PUBLIC "-//W3C//DTD SVG 1.1//EN" "http://www.w3.org/Graphics/SVG/1.1/DTD/svg11.dtd"><svg t="1614417471900" class="icon" viewBox="0 0 1024 1024" version="1.1" xmlns="http://www.w3.org/2000/svg" p-id="25974" xmlns:xlink="http://www.w3.org/1999/xlink" width="128" height="128"><defs><style type="text/css"></style></defs><path d="M932.224 393.696l1.632-0.696-31.512-19.08a50.976 50.976 0 0 0-1.704-1.04l-0.32-0.184a50.136 50.136 0 0 0-24.896-6.576H690.656V41.672c-0.008-10.72-5.968-19.36-14.208-23.84L651.584 3.68l-0.032-0.008c-7.92-4.56-18.08-5.2-27.12 0.016L85.584 315.12A33.232 33.232 0 0 0 69.088 339.52l-0.336 4.664v618.216A61.592 61.592 0 0 0 130.344 1024h770.688a54.216 54.216 0 0 0 54.208-54.216v-531.76a54.128 54.128 0 0 0-23.016-44.32z" fill="#8B5129" p-id="25975"></path><path d="M808.16 193.536h0.016l-13.344-7.704v0.008c-17.16-11.216-40.128-13.416-60.4-1.68L640 238.736 631.072 428l148.624-84.224a115.544 115.544 0 0 0 57.768-100.064c0-22.4-12.24-40.536-29.304-50.168z" fill="#D88A55" p-id="25976"></path><path d="M656.576 414.864V248.416l94.424-54.592c38.416-22.208 86.464 5.52 86.464 49.888 0 41.28-22.016 79.424-57.76 100.064l-123.128 71.088z" fill="#FCBF90" p-id="25977"></path><path d="M104.888 356.84c18.192 10.6 61.488 9.28 61.488 9.28h524.28V41.672c-0.016-20.896-22.64-33.944-40.72-23.496L111.072 329.616c-2.344 1.36-4.44 2.936-6.296 4.672-1.152 1.2-11.368 12.424 0.104 22.552zM94.256 966.552v10.352c0 7.512 1.344 14.704 3.8 21.36L108 987.944a61.584 61.584 0 0 1-13.744-21.4z" fill="#BA6024" p-id="25978"></path><path d="M721.52 300.08c0-27.448 16.688-59.328 37.272-71.216 20.584-11.88 37.264 0.728 37.264 28.176 0 27.44-16.68 59.328-37.264 71.208-20.584 11.888-37.272-0.728-37.272-28.168z" fill="#284363" p-id="25979"></path><path d="M734.248 292.728c0-18.072 10.984-39.064 24.544-46.888 13.552-7.832 24.536 0.48 24.536 18.552s-10.984 39.064-24.536 46.888c-13.56 7.824-24.544-0.48-24.544-18.552z" fill="#9FACBC" p-id="25980"></path><path d="M623.944 608.088L94.816 914.96l-0.56-533.552L623.384 74.536z" fill="#00AC65" p-id="25981"></path><path d="M623.944 608.088l-0.56-533.552L94.256 381.4l0.048 44.632L592.16 137.856l0.464 443.152-497.856 288.168 0.048 45.776z" fill="#00AC65" p-id="25982"></path><path d="M592.16 137.856L94.304 426.032l0.04 42.048 458.72-265.504 0.376 359.04L94.72 827.12l0.048 42.056 497.856-288.176z" fill="#FFE6C6" p-id="25983"></path><path d="M592.224 194.72c0.024 31.4-19.048 67.92-42.616 81.568-23.568 13.648-42.696-0.744-42.728-32.144-0.032-31.4 19.04-67.92 42.608-81.576 23.568-13.648 42.696 0.744 42.736 32.144zM283.2 538.36c0.072 66.216-40.16 143.224-89.84 172-49.696 28.776-90.032-1.56-90.104-67.776-0.064-66.208 40.16-143.216 89.848-172 49.688-28.784 90.024 1.568 90.096 67.776zM489.064 419.28c0.016 16.224-9.84 35.104-22.024 42.16-12.176 7.048-22.064-0.392-22.08-16.616-0.016-16.232 9.84-35.104 22.024-42.16 12.176-7.056 22.064 0.384 22.08 16.616zM592.56 524.144c0.04 31.4-19.04 67.92-42.608 81.576-23.568 13.648-42.696-0.744-42.728-32.144-0.032-31.4 19.04-67.92 42.608-81.576 23.568-13.648 42.704 0.744 42.736 32.144z" fill="#FFE6C6" p-id="25984"></path><path d="M163.984 409.304l486.064-285.696v315.768H162.48z" fill="#BA6024" p-id="25985"></path><path d="M618.424 211.072l-10.56-6.24a29.784 29.784 0 0 0-30.04-0.144L141.864 456.28a62.208 62.208 0 0 0-31.112 53.872V782.16c0 8.92 4.768 17.16 12.504 21.6l13.296 7.648 0.68 0.392 0.368 0.208v-0.008a24.64 24.64 0 0 0 24.16-0.4l438.208-252.992a62.208 62.208 0 0 0 31.104-53.88V232.744c0-9.672-5.28-17.504-12.648-21.672z" fill="#33AEFF" p-id="25986"></path><path d="M124.416 790.024V518.048a62.208 62.208 0 0 1 31.104-53.872l438.2-253a24.656 24.656 0 0 1 24.704-0.104l-10.56-6.24a29.784 29.784 0 0 0-30.04-0.152L141.864 456.288a62.208 62.208 0 0 0-31.112 53.872V782.16c0 8.92 4.768 17.16 12.504 21.6l13.296 7.648a24.64 24.64 0 0 1-12.136-21.376z" fill="#4F78E0" p-id="25987"></path><path d="M137.232 811.792l0.368 0.208v-0.008l-0.368-0.2z" fill="#2683BF" p-id="25988"></path><path d="M124.416 708.44L630.928 416v74.528L124.416 783.224z" fill="#424242" p-id="25989"></path><path d="M499.456 327.816l98.304-56.76v62.784l-98.304 56.76z" fill="#FFD800" p-id="25990"></path><path d="M513.76 330.768l15.904-9.184a4.72 4.72 0 0 1 7.072 4.08v21.544l-6.84 4.104v3.376l61.552-35.168v6.416c0 2.096-1.12 4.024-2.928 5.072L507.28 377.92v-6.352c0-2.048 1.08-3.952 2.84-5.016l14.824-8.928v-3.384l-10.624 6a4.72 4.72 0 0 1-7.04-4.104V342c0-4.64 2.472-8.912 6.48-11.232z" fill="#DCA700" p-id="25991"></path><path d="M588.52 317.304a5.848 5.848 0 0 0 2.928-5.064v-9.552l-45.472 26.256a5.856 5.856 0 0 0-2.928 5.072v9.544l45.472-26.256zM545.976 312.184a5.856 5.856 0 0 0-2.928 5.072v9.544l25.032-14.464a5.856 5.856 0 0 0 2.928-5.064v-9.536l-25.04 14.448zM576.528 294.384a5.856 5.856 0 0 0-2.968 5.096v9.704l14.96-8.64a5.848 5.848 0 0 0 2.92-5.064V285.92l-14.912 8.456z" fill="#DCA700" p-id="25992"></path><path d="M158.096 524.24v41.28l132.432-76.504v-41.232zM303.76 439.712v41.712l179.464-103.616v-41.28z" fill="#FFFFFF" p-id="25993"></path><path d="M158.096 596.696l325.128-187.72v18.472L158.096 615.152zM158.096 630.96l325.128-187.712v18.472L158.096 649.424z" fill="#2683BF" p-id="25994"></path><path d="M207.056 434.416L124.416 664.52v125.504c0 19.168 20.752 31.152 37.352 21.568l73.168-42.24 159.048-442.856-186.928 107.92zM631.072 336.904v-104.16c0-19.168-20.752-31.152-37.352-21.568l-109.528 63.24-159.056 442.856 213.624-123.336 92.32-257.04z" fill="#FFFFFF" opacity=".2" p-id="25995"></path><path d="M933.856 392.992l-33.536-20.304v0.016a50.136 50.136 0 0 0-24.896-6.592H166.376s-43.296 1.328-61.488-9.28c-11.16-6.504-14.656-19.024-14.64-30.336v618.216a61.592 61.592 0 0 0 61.6 61.584h723.576a50.4 50.4 0 0 0 50.4-50.4V416.52a50.24 50.24 0 0 0-3.544-18.56l11.576-4.96zM81.976 329.528c0-1.56 0.136-3.12 0.352-4.664h-0.352v4.664z" fill="#8B5129" p-id="25996"></path><path d="M650.048 366.112V281.488L506.08 366.112z" fill="#BA6024" p-id="25997"></path><path d="M955.248 434.216a50.4 50.4 0 0 0-50.4-50.4H144.872s-41.216 0.128-59.408-10.48a33.352 33.352 0 0 1-16.712-29.144v618.216A61.592 61.592 0 0 0 130.344 1024h774.504a50.4 50.4 0 0 0 50.4-50.4V434.216z" fill="#D88A55" p-id="25998"></path><path d="M93.336 446.768a3.6 3.6 0 0 1-1.784-0.472c-7.832-4.496-12.24-8.392-12.432-8.56a3.592 3.592 0 1 1 4.776-5.36c0.112 0.088 4.16 3.632 11.232 7.68a3.6 3.6 0 0 1-1.792 6.72zM141.6 459.888a97.6 97.6 0 0 1-22.592-2.68 3.6 3.6 0 0 1 1.664-6.992c6.904 1.648 13.944 2.48 20.928 2.48l6.64-0.008h0.008a3.6 3.6 0 0 1 0.008 7.184l-6.656 0.016z m693.648-0.016h-28.64a3.592 3.592 0 1 1 0-7.184h28.64a3.6 3.6 0 1 1 0 7.184z m-57.272 0l-28.632-0.016a3.592 3.592 0 1 1 0-7.184h28.64a3.6 3.6 0 1 1 0 7.2z m-57.256-0.016H692.08a3.6 3.6 0 1 1 0-7.192h28.632a3.592 3.592 0 0 1 0 7.192z m-543.84 0a3.6 3.6 0 0 1 0-7.2h28.608a3.592 3.592 0 1 1 0 7.184l-28.608 0.008z m486.584 0l-28.632-0.008a3.6 3.6 0 1 1 0-7.192h28.632a3.592 3.592 0 1 1 0 7.2z m-57.264-0.016h-28.624a3.6 3.6 0 1 1 0-7.184h28.624a3.6 3.6 0 1 1 0 7.184z m-57.248 0h-28.648a3.6 3.6 0 1 1 0-7.2l28.648 0.008a3.6 3.6 0 1 1 0 7.184z m-314.84-0.008a3.592 3.592 0 1 1 0-7.184h28.608a3.6 3.6 0 1 1 0 7.184h-28.608z m257.56 0h-28.608a3.6 3.6 0 1 1 0-7.192h28.608a3.6 3.6 0 0 1 0 7.192z m-57.232 0h-28.624a3.6 3.6 0 1 1 0-7.2l28.624 0.008a3.6 3.6 0 1 1 0 7.184z m-143.104 0a3.6 3.6 0 1 1 0-7.192h28.616a3.6 3.6 0 1 1 0 7.184h-28.616z m85.848 0H348.56a3.6 3.6 0 1 1 0-7.2h28.624a3.6 3.6 0 1 1 0 7.2zM877.72 474.256a3.6 3.6 0 0 1-3.6-3.592v-10.784H863.36a3.592 3.592 0 1 1 0-7.184h17.96v17.968a3.6 3.6 0 0 1-3.592 3.6zM877.72 917.024a3.6 3.6 0 0 1-3.6-3.6v-27.664a3.6 3.6 0 1 1 7.2 0v27.672a3.6 3.6 0 0 1-3.6 3.592z m0-55.344a3.6 3.6 0 0 1-3.6-3.6v-27.672a3.6 3.6 0 1 1 7.2 0v27.68a3.6 3.6 0 0 1-3.6 3.592z m0-55.344a3.6 3.6 0 0 1-3.6-3.6v-27.672a3.6 3.6 0 1 1 7.2 0v27.68a3.6 3.6 0 0 1-3.6 3.584z m0-55.344a3.6 3.6 0 0 1-3.6-3.6v-27.672a3.6 3.6 0 1 1 7.2 0v27.68a3.6 3.6 0 0 1-3.6 3.592z m0-55.352a3.6 3.6 0 0 1-3.6-3.592v-27.672a3.6 3.6 0 1 1 7.2 0v27.672a3.6 3.6 0 0 1-3.6 3.6z m0-55.344a3.6 3.6 0 0 1-3.6-3.6V609.04a3.6 3.6 0 1 1 7.2 0v27.672a3.6 3.6 0 0 1-3.6 3.592z m0-55.344a3.6 3.6 0 0 1-3.6-3.6v-27.664a3.6 3.6 0 1 1 7.2 0v27.672a3.6 3.6 0 0 1-3.6 3.592z m0-55.344a3.6 3.6 0 0 1-3.6-3.6v-27.672a3.6 3.6 0 1 1 7.2 0v27.68a3.6 3.6 0 0 1-3.6 3.592zM881.312 959.072h-17.968a3.6 3.6 0 1 1 0-7.184h10.784v-10.784a3.6 3.6 0 1 1 7.184 0v17.968zM834.824 959.072H806.32a3.6 3.6 0 1 1 0-7.184h28.512a3.6 3.6 0 1 1 0 7.184z m-57.04 0H749.28a3.6 3.6 0 1 1 0-7.184h28.512a3.6 3.6 0 1 1 0 7.184z m-57.04 0H692.24a3.6 3.6 0 1 1 0-7.184h28.52a3.6 3.6 0 1 1 0 7.184z m-57.032 0H635.2a3.6 3.6 0 1 1 0-7.184h28.512a3.6 3.6 0 1 1 0 7.184z m-57.04 0H578.16a3.6 3.6 0 1 1 0-7.184h28.52a3.6 3.6 0 1 1 0 7.184z m-57.032 0H521.12a3.6 3.6 0 1 1 0-7.184h28.52a3.6 3.6 0 1 1 0 7.184z m-57.04 0H464.08a3.6 3.6 0 1 1 0-7.184h28.52a3.6 3.6 0 1 1 0 7.184z m-57.04 0h-28.512a3.6 3.6 0 1 1 0-7.184h28.52a3.6 3.6 0 1 1 0 7.184z m-57.032 0h-28.52a3.6 3.6 0 1 1 0-7.184h28.52a3.6 3.6 0 1 1 0 7.184z m-57.04 0h-28.512a3.6 3.6 0 1 1 0-7.184h28.512a3.6 3.6 0 1 1 0 7.184z m-57.04 0h-28.512a3.6 3.6 0 1 1 0-7.184h28.52a3.6 3.6 0 1 1 0 7.184z m-57.032 0h-28.52a3.6 3.6 0 1 1 0-7.184h28.52a3.6 3.6 0 1 1 0 7.184z m-57.04 0l-20.736-0.088a102.144 102.144 0 0 1-8.584-2.552 3.6 3.6 0 0 1 2.304-6.8c3.744 1.264 6.552 2 7.536 2.256h19.48a3.6 3.6 0 1 1 0 7.184zM96.784 943.944a3.584 3.584 0 0 1-2.136-0.704c-4.592-3.408-8.272-7.112-10.928-11.008a3.6 3.6 0 0 1 5.936-4.048c2.208 3.232 5.328 6.36 9.272 9.28a3.6 3.6 0 0 1-2.144 6.48z" fill="#BA6024" p-id="25999"></path><path d="M807.48 714.736m-45.192 0a45.192 45.192 0 1 0 90.384 0 45.192 45.192 0 1 0-90.384 0Z" fill="#C8CED6" p-id="26000"></path><path d="M807.48 714.736m-25.04 0a25.04 25.04 0 1 0 50.08 0 25.04 25.04 0 1 0-50.08 0Z" fill="#9FACBC" p-id="26001"></path></svg>