<?xml version="1.0" standalone="no"?><!DOCTYPE svg PUBLIC "-//W3C//DTD SVG 1.1//EN" "http://www.w3.org/Graphics/SVG/1.1/DTD/svg11.dtd"><svg t="1614417491913" class="icon" viewBox="0 0 1024 1024" version="1.1" xmlns="http://www.w3.org/2000/svg" p-id="29539" xmlns:xlink="http://www.w3.org/1999/xlink" width="128" height="128"><defs><style type="text/css"></style></defs><path d="M80 168.8h800c44 0 80 36 80 80v96c0 44-36 80-80 80H80c-44 0-80-36-80-80v-96c0-44 36-80 80-80z" fill="#A86A3F" p-id="29540"></path><path d="M255.2 254.4l500.8-132.8c16.8-4.8 34.4 5.6 39.2 22.4l83.2 307.2c4.8 16.8-5.6 34.4-22.4 39.2L204 664c-16.8 4.8-34.4-5.6-39.2-22.4L104 416l151.2-161.6z" fill="#3DB39E" p-id="29541"></path><path d="M791.2 441.6l-108 28.8c-8.8 2.4-17.6-2.4-19.2-11.2-2.4-8.8 2.4-17.6 11.2-19.2L768 415.2l-49.6-185.6-92.8 24.8c-8.8 2.4-17.6-2.4-19.2-11.2-2.4-8.8 2.4-17.6 11.2-19.2l108-28.8c8.8-2.4 17.6 2.4 19.2 11.2l57.6 216c2.4 8.8-2.4 17.6-11.2 19.2z m-448 120.8l-108 28.8c-8.8 2.4-17.6-2.4-19.2-11.2l-57.6-216c-2.4-8.8 2.4-17.6 11.2-19.2l108-28.8c8.8-2.4 17.6 2.4 19.2 11.2 2.4 8.8-2.4 17.6-11.2 19.2l-92.8 24.8 49.6 185.6 92.8-24.8c8.8-2.4 17.6 2.4 19.2 11.2 2.4 8-2.4 16.8-11.2 19.2z" fill="#78CABB" p-id="29542"></path><path d="M6.4 366.4C148.8 284.8 532.8 60 532.8 60c15.2-8.8 35.2-4 44 11.2l160 275.2c8.8 15.2 3.2 34.4-12 43.2l-585.6 336c-15.2 8.8-35.2 4-44-11.2 0 0-44.8-91.2-89.6-168 0-180 0.8-120.8 0.8-180z" fill="#5ABEAC" p-id="29543"></path><path d="M655.2 337.6L543.2 144c-4.8-8-14.4-10.4-21.6-5.6l-96.8 56c-8 4.8-10.4 14.4-5.6 21.6 4.8 8 14.4 10.4 21.6 5.6l83.2-48 96 166.4-83.2 48c-8 4.8-10.4 14.4-5.6 21.6 4.8 8 14.4 10.4 21.6 5.6l96.8-56c7.2-4 10.4-13.6 5.6-21.6z m-424 226.4l-83.2 48-96-166.4 83.2-48c8-4.8 10.4-14.4 5.6-21.6-4.8-8-14.4-10.4-21.6-5.6l-96.8 56c-8 4.8-10.4 14.4-5.6 21.6l112 193.6c4.8 8 14.4 10.4 21.6 5.6l96.8-56c8-4.8 10.4-14.4 5.6-21.6-4-7.2-13.6-10.4-21.6-5.6zM272 281.6c-61.6 35.2-82.4 113.6-47.2 175.2C260.8 518.4 338.4 539.2 400 504c61.6-35.2 82.4-113.6 47.2-175.2-36-60.8-113.6-82.4-175.2-47.2z m383.2 56L543.2 144c-4.8-8-14.4-10.4-21.6-5.6l-96.8 56c-8 4.8-10.4 14.4-5.6 21.6 4.8 8 14.4 10.4 21.6 5.6l83.2-48 96 166.4-83.2 48c-8 4.8-10.4 14.4-5.6 21.6 4.8 8 14.4 10.4 21.6 5.6l96.8-56c7.2-4 10.4-13.6 5.6-21.6z m-424 226.4l-83.2 48-96-166.4 83.2-48c8-4.8 10.4-14.4 5.6-21.6-4.8-8-14.4-10.4-21.6-5.6l-96.8 56c-8 4.8-10.4 14.4-5.6 21.6l112 193.6c4.8 8 14.4 10.4 21.6 5.6l96.8-56c8-4.8 10.4-14.4 5.6-21.6-4-7.2-13.6-10.4-21.6-5.6zM272 281.6c-61.6 35.2-82.4 113.6-47.2 175.2C260.8 518.4 338.4 539.2 400 504c61.6-35.2 82.4-113.6 47.2-175.2-36-60.8-113.6-82.4-175.2-47.2z" fill="#8CD2C5" p-id="29544"></path><path d="M912 968.8H80c-44 0-80-36-80-80v-576h912c44 0 80 36 80 80v496c0 44-36 80-80 80zM64 312.8H0v-64c0 35.2 28.8 64 64 64z" fill="#C47E4D" p-id="29545"></path><path d="M992 768.8h-128c-61.6 0-112-50.4-112-112s50.4-112 112-112h128c17.6 0 32 14.4 32 32v160c0 17.6-14.4 32-32 32z" fill="#A86A3F" p-id="29546"></path><path d="M864 592.8c35.2 0 64 28.8 64 64s-28.8 64-64 64-64-28.8-64-64 28.8-64 64-64z" fill="#EFC75E" p-id="29547"></path><path d="M880 704.8c-35.2 0-64-28.8-64-64 0-13.6 4-26.4 11.2-36.8-16.8 11.2-27.2 30.4-27.2 52.8 0 35.2 28.8 64 64 64 21.6 0 40.8-11.2 52.8-27.2-10.4 7.2-23.2 11.2-36.8 11.2z" fill="#D7B354" p-id="29548"></path><path d="M912 936.8H80c-44 0-80-36-80-80v32c0 44 36 80 80 80h832c44 0 80-36 80-80v-32c0 44-36 80-80 80z" fill="#B27245" p-id="29549"></path><path d="M912 312.8H64c-35.2 0-64-28.8-64-64v32c0 35.2 28.8 64 64 64h848c44 0 80 36 80 80v-32c0-44-36-80-80-80z" fill="#CA8B5F" p-id="29550"></path></svg>