<?xml version="1.0" standalone="no"?><!DOCTYPE svg PUBLIC "-//W3C//DTD SVG 1.1//EN" "http://www.w3.org/Graphics/SVG/1.1/DTD/svg11.dtd"><svg t="1611836733518" class="icon" viewBox="0 0 1092 1024" version="1.1" xmlns="http://www.w3.org/2000/svg" p-id="15699" xmlns:xlink="http://www.w3.org/1999/xlink" width="17.0625" height="16"><defs><style type="text/css"></style></defs><path d="M32.768 192.512Q106.496 68.266667 341.333333 68.266667t341.333334 124.245333l-47.786667 676.522667a936.618667 936.618667 0 0 1-293.546667 63.488 711.338667 711.338667 0 0 1-308.565333-105.813334z" fill="#FFE5AD" p-id="15700"></path><path d="M0 170.666667C0 68.266667 154.965333 0 341.333333 0s341.333333 68.266667 341.333334 170.666667v614.4H614.4v-25.258667a654.677333 654.677333 0 0 1-267.605333 51.882667A624.64 624.64 0 0 1 68.266667 756.394667v28.672H0zM68.266667 273.066667v81.237333a567.296 567.296 0 0 0 278.528 62.122667 587.776 587.776 0 0 0 243.712-47.786667L614.4 359.082667V273.066667a518.144 518.144 0 0 1-273.066667 68.266666 518.144 518.144 0 0 1-273.066666-68.266666z m0 156.330666v88.746667a567.296 567.296 0 0 0 278.528 62.122667 587.776 587.776 0 0 0 243.712-47.786667L614.4 522.922667V432.810667a654.677333 654.677333 0 0 1-267.605333 51.882666A624.64 624.64 0 0 1 68.266667 429.397333z m0 163.84V682.666667a567.296 567.296 0 0 0 278.528 62.122666 587.776 587.776 0 0 0 243.712-47.786666l23.893333-10.922667V595.968a654.677333 654.677333 0 0 1-267.605333 51.882667A624.64 624.64 0 0 1 68.266667 592.554667zM341.333333 273.066667c152.917333 0 273.066667-53.248 273.066667-102.4S494.250667 68.266667 341.333333 68.266667s-273.066667 53.248-273.066666 102.4S188.416 273.066667 341.333333 273.066667z m-341.333333 512h68.266667c0 49.152 120.149333 102.4 273.066666 102.4s273.066667-53.248 273.066667-102.4h68.266667C682.666667 887.466667 527.701333 955.733333 341.333333 955.733333s-341.333333-68.266667-341.333333-170.666666z" fill="#E4A620" p-id="15701"></path><path d="M444.416 580.949333q0-184.32 293.546667-188.416t320.853333 188.416v335.872a1144.149333 1144.149333 0 0 1-341.333333 90.794667 630.784 630.784 0 0 1-273.066667-90.794667z" fill="#FFE5AD" p-id="15702"></path><path d="M409.6 512C409.6 409.6 564.565333 341.333333 750.933333 341.333333s341.333333 68.266667 341.333334 170.666667v341.333333c0 102.4-157.013333 170.666667-341.333334 170.666667s-341.333333-68.266667-341.333333-167.936zM477.866667 614.4v102.4a567.296 567.296 0 0 0 278.528 62.122667 587.776 587.776 0 0 0 243.712-47.786667l22.528-9.557333V614.4a518.144 518.144 0 0 1-273.066667 68.266667A518.144 518.144 0 0 1 477.866667 614.4z m0 177.493333v58.709334c0 49.152 120.149333 102.4 273.066666 102.4s273.066667-53.248 273.066667-102.4v-55.296a654.677333 654.677333 0 0 1-267.605333 51.882666A624.64 624.64 0 0 1 477.866667 794.624zM750.933333 614.4c152.917333 0 273.066667-53.248 273.066667-102.4S903.850667 409.6 750.933333 409.6s-273.066667 53.248-273.066666 102.4S598.016 614.4 750.933333 614.4z" fill="#E4A620" p-id="15703"></path></svg>